<svg xmlns="http://www.w3.org/2000/svg" viewBox="0 0 1200 1200" preserveAspectRatio="xMidYMid slice">
  <defs>
    <radialGradient id="bg" cx="50%" cy="50%" r="80%">
      <stop offset="0%" stop-color="#FAF0F0" />
      <stop offset="60%" stop-color="#F5E8E8" />
      <stop offset="100%" stop-color="#E8D4D4" />
    </radialGradient>
    <filter id="blur"><feGaussianBlur stdDeviation="60"/></filter>
  </defs>
  <rect width="1200" height="1200" fill="url(#bg)"/>
  <circle cx="439" cy="150" r="81" fill="#C0A0A0" opacity="0.05" filter="url(#blur)"/><circle cx="659" cy="707" r="122" fill="#C0A0A0" opacity="0.08" filter="url(#blur)"/><circle cx="993" cy="116" r="126" fill="#FAF0F0" opacity="0.11" filter="url(#blur)"/><circle cx="376" cy="803" r="121" fill="#D4A0A0" opacity="0.05" filter="url(#blur)"/><circle cx="1073" cy="1059" r="123" fill="#FAF0F0" opacity="0.15" filter="url(#blur)"/>
  <path d="M489,528 L477,558 L481,578 L497,578 L501,558 Z" fill="none" stroke="#C0A0A0" stroke-width="2.5" opacity="0.3"/>
  <g opacity="0.06">
    <circle cx="922" cy="1081" r="1" fill="#C0A0A0"/><circle cx="595" cy="72" r="3" fill="#C0A0A0"/><circle cx="930" cy="798" r="1" fill="#C0A0A0"/><circle cx="401" cy="698" r="2" fill="#C0A0A0"/><circle cx="567" cy="850" r="3" fill="#C0A0A0"/><circle cx="384" cy="729" r="1" fill="#C0A0A0"/><circle cx="827" cy="1045" r="3" fill="#C0A0A0"/><circle cx="113" cy="931" r="2" fill="#C0A0A0"/><circle cx="191" cy="114" r="3" fill="#C0A0A0"/><circle cx="692" cy="257" r="3" fill="#C0A0A0"/><circle cx="62" cy="1038" r="1" fill="#C0A0A0"/><circle cx="752" cy="578" r="1" fill="#C0A0A0"/><circle cx="521" cy="693" r="1" fill="#C0A0A0"/><circle cx="507" cy="1040" r="1" fill="#C0A0A0"/><circle cx="53" cy="796" r="2" fill="#C0A0A0"/>
  </g>
</svg>