<svg xmlns="http://www.w3.org/2000/svg" viewBox="0 0 1200 1200" preserveAspectRatio="xMidYMid slice">
  <defs>
    <radialGradient id="bg" cx="50%" cy="50%" r="80%">
      <stop offset="0%" stop-color="#FFF8F0" />
      <stop offset="60%" stop-color="#F5E6D3" />
      <stop offset="100%" stop-color="#E8D4C0" />
    </radialGradient>
    <filter id="blur"><feGaussianBlur stdDeviation="60"/></filter>
  </defs>
  <rect width="1200" height="1200" fill="url(#bg)"/>
  <circle cx="105" cy="277" r="162" fill="#FFF8F0" opacity="0.19" filter="url(#blur)"/><circle cx="481" cy="474" r="197" fill="#E8D4C0" opacity="0.09" filter="url(#blur)"/><circle cx="953" cy="712" r="157" fill="#C9A87C" opacity="0.15" filter="url(#blur)"/><circle cx="106" cy="987" r="115" fill="#D4A574" opacity="0.08" filter="url(#blur)"/><circle cx="565" cy="1080" r="140" fill="#D4A574" opacity="0.13" filter="url(#blur)"/>
  <circle cx="717" cy="605" r="50" fill="none" stroke="#C9A87C" stroke-width="2.5" opacity="0.3"/><circle cx="697" cy="605" r="35" fill="none" stroke="#C9A87C" stroke-width="2" opacity="0.25"/><circle cx="737" cy="605" r="35" fill="none" stroke="#C9A87C" stroke-width="2" opacity="0.25"/>
  <g opacity="0.06">
    <circle cx="502" cy="100" r="1" fill="#C9A87C"/><circle cx="1150" cy="588" r="3" fill="#C9A87C"/><circle cx="774" cy="53" r="3" fill="#C9A87C"/><circle cx="349" cy="87" r="3" fill="#C9A87C"/><circle cx="949" cy="444" r="3" fill="#C9A87C"/><circle cx="1054" cy="931" r="3" fill="#C9A87C"/><circle cx="934" cy="466" r="1" fill="#C9A87C"/><circle cx="466" cy="820" r="1" fill="#C9A87C"/><circle cx="431" cy="907" r="2" fill="#C9A87C"/><circle cx="898" cy="1111" r="2" fill="#C9A87C"/><circle cx="126" cy="413" r="3" fill="#C9A87C"/><circle cx="228" cy="665" r="3" fill="#C9A87C"/><circle cx="531" cy="598" r="3" fill="#C9A87C"/><circle cx="552" cy="67" r="1" fill="#C9A87C"/><circle cx="766" cy="140" r="2" fill="#C9A87C"/>
  </g>
</svg>