<svg xmlns="http://www.w3.org/2000/svg" viewBox="0 0 1200 1200" preserveAspectRatio="xMidYMid slice">
  <defs>
    <radialGradient id="bg" cx="50%" cy="50%" r="80%">
      <stop offset="0%" stop-color="#FFF8F0" />
      <stop offset="60%" stop-color="#F5E6D3" />
      <stop offset="100%" stop-color="#E8D4C0" />
    </radialGradient>
    <filter id="blur"><feGaussianBlur stdDeviation="60"/></filter>
  </defs>
  <rect width="1200" height="1200" fill="url(#bg)"/>
  <circle cx="484" cy="249" r="139" fill="#C9A87C" opacity="0.18" filter="url(#blur)"/><circle cx="575" cy="877" r="120" fill="#FFF8F0" opacity="0.06" filter="url(#blur)"/><circle cx="851" cy="285" r="154" fill="#FFF8F0" opacity="0.17" filter="url(#blur)"/><circle cx="1001" cy="738" r="118" fill="#FFF8F0" opacity="0.14" filter="url(#blur)"/><circle cx="766" cy="1019" r="115" fill="#D4A574" opacity="0.16" filter="url(#blur)"/>
  <circle cx="633" cy="452" r="50" fill="none" stroke="#C9A87C" stroke-width="2.5" opacity="0.3"/><circle cx="613" cy="452" r="35" fill="none" stroke="#C9A87C" stroke-width="2" opacity="0.25"/><circle cx="653" cy="452" r="35" fill="none" stroke="#C9A87C" stroke-width="2" opacity="0.25"/>
  <g opacity="0.06">
    <circle cx="499" cy="1000" r="2" fill="#C9A87C"/><circle cx="321" cy="676" r="1" fill="#C9A87C"/><circle cx="976" cy="361" r="2" fill="#C9A87C"/><circle cx="666" cy="804" r="2" fill="#C9A87C"/><circle cx="1004" cy="475" r="1" fill="#C9A87C"/><circle cx="796" cy="72" r="1" fill="#C9A87C"/><circle cx="1090" cy="107" r="3" fill="#C9A87C"/><circle cx="552" cy="676" r="2" fill="#C9A87C"/><circle cx="692" cy="321" r="1" fill="#C9A87C"/><circle cx="336" cy="738" r="1" fill="#C9A87C"/><circle cx="1115" cy="752" r="1" fill="#C9A87C"/><circle cx="747" cy="366" r="3" fill="#C9A87C"/><circle cx="895" cy="839" r="1" fill="#C9A87C"/><circle cx="768" cy="343" r="1" fill="#C9A87C"/><circle cx="712" cy="122" r="1" fill="#C9A87C"/>
  </g>
</svg>