<svg xmlns="http://www.w3.org/2000/svg" viewBox="0 0 1200 1200" preserveAspectRatio="xMidYMid slice">
  <defs>
    <radialGradient id="bg" cx="50%" cy="50%" r="80%">
      <stop offset="0%" stop-color="#FAF5F0" />
      <stop offset="60%" stop-color="#F5E8D8" />
      <stop offset="100%" stop-color="#E8D4C0" />
    </radialGradient>
    <filter id="blur"><feGaussianBlur stdDeviation="60"/></filter>
  </defs>
  <rect width="1200" height="1200" fill="url(#bg)"/>
  <circle cx="161" cy="439" r="122" fill="#C0A070" opacity="0.09" filter="url(#blur)"/><circle cx="177" cy="779" r="152" fill="#FAF5F0" opacity="0.12" filter="url(#blur)"/><circle cx="651" cy="279" r="143" fill="#C0A070" opacity="0.15" filter="url(#blur)"/><circle cx="419" cy="123" r="182" fill="#D4A060" opacity="0.09" filter="url(#blur)"/><circle cx="672" cy="176" r="194" fill="#FAF5F0" opacity="0.17" filter="url(#blur)"/>
  <rect x="705" y="465" width="40" height="30" rx="3" fill="none" stroke="#C0A070" stroke-width="2.5" opacity="0.3"/>
  <g opacity="0.06">
    <circle cx="769" cy="712" r="1" fill="#C0A070"/><circle cx="750" cy="471" r="3" fill="#C0A070"/><circle cx="245" cy="1071" r="2" fill="#C0A070"/><circle cx="947" cy="1104" r="1" fill="#C0A070"/><circle cx="340" cy="242" r="3" fill="#C0A070"/><circle cx="274" cy="383" r="2" fill="#C0A070"/><circle cx="408" cy="906" r="1" fill="#C0A070"/><circle cx="570" cy="241" r="2" fill="#C0A070"/><circle cx="490" cy="774" r="3" fill="#C0A070"/><circle cx="496" cy="960" r="2" fill="#C0A070"/><circle cx="1122" cy="181" r="1" fill="#C0A070"/><circle cx="277" cy="850" r="3" fill="#C0A070"/><circle cx="610" cy="699" r="3" fill="#C0A070"/><circle cx="1028" cy="717" r="2" fill="#C0A070"/><circle cx="1078" cy="1034" r="2" fill="#C0A070"/>
  </g>
</svg>