<svg xmlns="http://www.w3.org/2000/svg" viewBox="0 0 1200 1200" preserveAspectRatio="xMidYMid slice">
  <defs>
    <radialGradient id="bg" cx="50%" cy="50%" r="80%">
      <stop offset="0%" stop-color="#FAF6F2" />
      <stop offset="60%" stop-color="#F0E8E0" />
      <stop offset="100%" stop-color="#DDD5CC" />
    </radialGradient>
    <filter id="blur"><feGaussianBlur stdDeviation="60"/></filter>
  </defs>
  <rect width="1200" height="1200" fill="url(#bg)"/>
  <circle cx="665" cy="718" r="179" fill="#DDD5CC" opacity="0.19" filter="url(#blur)"/><circle cx="200" cy="466" r="190" fill="#DDD5CC" opacity="0.17" filter="url(#blur)"/><circle cx="166" cy="533" r="82" fill="#FAF6F2" opacity="0.18" filter="url(#blur)"/><circle cx="501" cy="587" r="182" fill="#FAF6F2" opacity="0.17" filter="url(#blur)"/><circle cx="672" cy="705" r="109" fill="#A09080" opacity="0.08" filter="url(#blur)"/>
  <rect x="547" y="547" width="36" height="24" rx="2" fill="none" stroke="#B0A090" stroke-width="2.5" opacity="0.3"/><path d="M547,547 L565,559 L583,547" fill="none" stroke="#B0A090" stroke-width="2" opacity="0.25"/>
  <g opacity="0.06">
    <circle cx="1095" cy="1147" r="3" fill="#B0A090"/><circle cx="582" cy="1065" r="3" fill="#B0A090"/><circle cx="1093" cy="273" r="2" fill="#B0A090"/><circle cx="223" cy="460" r="3" fill="#B0A090"/><circle cx="785" cy="537" r="1" fill="#B0A090"/><circle cx="793" cy="633" r="3" fill="#B0A090"/><circle cx="706" cy="732" r="2" fill="#B0A090"/><circle cx="831" cy="938" r="2" fill="#B0A090"/><circle cx="591" cy="766" r="2" fill="#B0A090"/><circle cx="330" cy="248" r="3" fill="#B0A090"/><circle cx="660" cy="173" r="2" fill="#B0A090"/><circle cx="1022" cy="782" r="3" fill="#B0A090"/><circle cx="302" cy="593" r="1" fill="#B0A090"/><circle cx="220" cy="225" r="1" fill="#B0A090"/><circle cx="230" cy="339" r="3" fill="#B0A090"/>
  </g>
</svg>