<svg xmlns="http://www.w3.org/2000/svg" viewBox="0 0 1200 1200" preserveAspectRatio="xMidYMid slice">
  <defs>
    <radialGradient id="bg" cx="50%" cy="50%" r="80%">
      <stop offset="0%" stop-color="#F0F5F5" />
      <stop offset="60%" stop-color="#E0E8E8" />
      <stop offset="100%" stop-color="#CCD4D4" />
    </radialGradient>
    <filter id="blur"><feGaussianBlur stdDeviation="60"/></filter>
  </defs>
  <rect width="1200" height="1200" fill="url(#bg)"/>
  <circle cx="500" cy="661" r="88" fill="#809090" opacity="0.19" filter="url(#blur)"/><circle cx="1046" cy="971" r="196" fill="#F0F5F5" opacity="0.20" filter="url(#blur)"/><circle cx="583" cy="373" r="170" fill="#809090" opacity="0.16" filter="url(#blur)"/><circle cx="476" cy="683" r="140" fill="#90A0A0" opacity="0.15" filter="url(#blur)"/><circle cx="730" cy="639" r="124" fill="#809090" opacity="0.12" filter="url(#blur)"/>
  <circle cx="583" cy="565" r="30" fill="none" stroke="#90A0A0" stroke-width="2.5" opacity="0.3"/><line x1="583" y1="565" x2="583" y2="545" stroke="#90A0A0" stroke-width="2" opacity="0.25"/><line x1="583" y1="565" x2="598" y2="575" stroke="#90A0A0" stroke-width="2" opacity="0.25"/>
  <g opacity="0.06">
    <circle cx="797" cy="754" r="1" fill="#90A0A0"/><circle cx="209" cy="171" r="2" fill="#90A0A0"/><circle cx="681" cy="1044" r="2" fill="#90A0A0"/><circle cx="984" cy="699" r="3" fill="#90A0A0"/><circle cx="315" cy="804" r="3" fill="#90A0A0"/><circle cx="128" cy="552" r="2" fill="#90A0A0"/><circle cx="561" cy="184" r="2" fill="#90A0A0"/><circle cx="854" cy="677" r="2" fill="#90A0A0"/><circle cx="636" cy="374" r="3" fill="#90A0A0"/><circle cx="363" cy="391" r="2" fill="#90A0A0"/><circle cx="1097" cy="699" r="1" fill="#90A0A0"/><circle cx="336" cy="429" r="1" fill="#90A0A0"/><circle cx="1094" cy="997" r="1" fill="#90A0A0"/><circle cx="718" cy="429" r="3" fill="#90A0A0"/><circle cx="192" cy="693" r="2" fill="#90A0A0"/>
  </g>
</svg>