<svg xmlns="http://www.w3.org/2000/svg" viewBox="0 0 1200 1200" preserveAspectRatio="xMidYMid slice">
  <defs>
    <radialGradient id="bg" cx="50%" cy="50%" r="80%">
      <stop offset="0%" stop-color="#FAF6F2" />
      <stop offset="60%" stop-color="#F0E8E0" />
      <stop offset="100%" stop-color="#DDD5CC" />
    </radialGradient>
    <filter id="blur"><feGaussianBlur stdDeviation="60"/></filter>
  </defs>
  <rect width="1200" height="1200" fill="url(#bg)"/>
  <circle cx="185" cy="984" r="140" fill="#B8A89A" opacity="0.17" filter="url(#blur)"/><circle cx="503" cy="1050" r="139" fill="#FAF6F2" opacity="0.17" filter="url(#blur)"/><circle cx="266" cy="989" r="185" fill="#B8A89A" opacity="0.20" filter="url(#blur)"/><circle cx="154" cy="761" r="182" fill="#9A8B7A" opacity="0.20" filter="url(#blur)"/><circle cx="680" cy="508" r="195" fill="#FAF6F2" opacity="0.08" filter="url(#blur)"/>
  <path d="M482,633 L522,583 L562,633" fill="none" stroke="#B8A89A" stroke-width="2.5" opacity="0.3"/>
  <g opacity="0.06">
    <circle cx="922" cy="78" r="2" fill="#B8A89A"/><circle cx="959" cy="1007" r="3" fill="#B8A89A"/><circle cx="271" cy="438" r="3" fill="#B8A89A"/><circle cx="950" cy="352" r="1" fill="#B8A89A"/><circle cx="611" cy="841" r="3" fill="#B8A89A"/><circle cx="258" cy="531" r="3" fill="#B8A89A"/><circle cx="263" cy="813" r="3" fill="#B8A89A"/><circle cx="823" cy="704" r="2" fill="#B8A89A"/><circle cx="798" cy="867" r="1" fill="#B8A89A"/><circle cx="201" cy="178" r="2" fill="#B8A89A"/><circle cx="770" cy="421" r="2" fill="#B8A89A"/><circle cx="706" cy="267" r="3" fill="#B8A89A"/><circle cx="102" cy="104" r="1" fill="#B8A89A"/><circle cx="703" cy="152" r="3" fill="#B8A89A"/><circle cx="161" cy="56" r="2" fill="#B8A89A"/>
  </g>
</svg>