<svg xmlns="http://www.w3.org/2000/svg" viewBox="0 0 1200 1200" preserveAspectRatio="xMidYMid slice">
  <defs>
    <radialGradient id="bg" cx="50%" cy="50%" r="80%">
      <stop offset="0%" stop-color="#FAF5F0" />
      <stop offset="60%" stop-color="#F0E8D8" />
      <stop offset="100%" stop-color="#DDD0C0" />
    </radialGradient>
    <filter id="blur"><feGaussianBlur stdDeviation="60"/></filter>
  </defs>
  <rect width="1200" height="1200" fill="url(#bg)"/>
  <circle cx="312" cy="348" r="81" fill="#A08060" opacity="0.11" filter="url(#blur)"/><circle cx="957" cy="877" r="131" fill="#FAF5F0" opacity="0.13" filter="url(#blur)"/><circle cx="953" cy="693" r="102" fill="#B8A080" opacity="0.09" filter="url(#blur)"/><circle cx="183" cy="544" r="195" fill="#DDD0C0" opacity="0.05" filter="url(#blur)"/><circle cx="819" cy="616" r="86" fill="#B8A080" opacity="0.19" filter="url(#blur)"/>
  <rect x="687" y="566" width="50" height="10" rx="3" fill="none" stroke="#B8A080" stroke-width="2.5" opacity="0.3"/><line x1="692" y1="566" x2="692" y2="591" stroke="#B8A080" stroke-width="2" opacity="0.25"/><line x1="732" y1="566" x2="732" y2="591" stroke="#B8A080" stroke-width="2" opacity="0.25"/>
  <g opacity="0.06">
    <circle cx="951" cy="873" r="3" fill="#B8A080"/><circle cx="1020" cy="889" r="1" fill="#B8A080"/><circle cx="205" cy="932" r="2" fill="#B8A080"/><circle cx="798" cy="295" r="3" fill="#B8A080"/><circle cx="973" cy="242" r="3" fill="#B8A080"/><circle cx="696" cy="56" r="1" fill="#B8A080"/><circle cx="1098" cy="83" r="1" fill="#B8A080"/><circle cx="768" cy="299" r="2" fill="#B8A080"/><circle cx="414" cy="137" r="2" fill="#B8A080"/><circle cx="1044" cy="542" r="2" fill="#B8A080"/><circle cx="730" cy="107" r="3" fill="#B8A080"/><circle cx="311" cy="195" r="3" fill="#B8A080"/><circle cx="912" cy="1149" r="1" fill="#B8A080"/><circle cx="183" cy="297" r="3" fill="#B8A080"/><circle cx="661" cy="357" r="2" fill="#B8A080"/>
  </g>
</svg>