<svg xmlns="http://www.w3.org/2000/svg" viewBox="0 0 1200 1200" preserveAspectRatio="xMidYMid slice">
  <defs>
    <radialGradient id="bg" cx="50%" cy="50%" r="80%">
      <stop offset="0%" stop-color="#FAF5F0" />
      <stop offset="60%" stop-color="#F0E8D8" />
      <stop offset="100%" stop-color="#DDD0C0" />
    </radialGradient>
    <filter id="blur"><feGaussianBlur stdDeviation="60"/></filter>
  </defs>
  <rect width="1200" height="1200" fill="url(#bg)"/>
  <circle cx="958" cy="251" r="144" fill="#A08060" opacity="0.16" filter="url(#blur)"/><circle cx="1087" cy="723" r="144" fill="#A08060" opacity="0.14" filter="url(#blur)"/><circle cx="830" cy="377" r="196" fill="#FAF5F0" opacity="0.06" filter="url(#blur)"/><circle cx="1002" cy="541" r="103" fill="#B8A080" opacity="0.06" filter="url(#blur)"/><circle cx="620" cy="108" r="81" fill="#A08060" opacity="0.15" filter="url(#blur)"/>
  <rect x="442" y="462" width="50" height="10" rx="3" fill="none" stroke="#B8A080" stroke-width="2.5" opacity="0.3"/><line x1="447" y1="462" x2="447" y2="487" stroke="#B8A080" stroke-width="2" opacity="0.25"/><line x1="487" y1="462" x2="487" y2="487" stroke="#B8A080" stroke-width="2" opacity="0.25"/>
  <g opacity="0.06">
    <circle cx="839" cy="483" r="2" fill="#B8A080"/><circle cx="920" cy="162" r="3" fill="#B8A080"/><circle cx="288" cy="825" r="2" fill="#B8A080"/><circle cx="745" cy="575" r="2" fill="#B8A080"/><circle cx="885" cy="897" r="1" fill="#B8A080"/><circle cx="522" cy="1009" r="1" fill="#B8A080"/><circle cx="57" cy="215" r="2" fill="#B8A080"/><circle cx="1046" cy="450" r="2" fill="#B8A080"/><circle cx="1033" cy="116" r="1" fill="#B8A080"/><circle cx="1042" cy="1092" r="2" fill="#B8A080"/><circle cx="900" cy="564" r="1" fill="#B8A080"/><circle cx="1118" cy="189" r="2" fill="#B8A080"/><circle cx="402" cy="812" r="1" fill="#B8A080"/><circle cx="760" cy="879" r="3" fill="#B8A080"/><circle cx="361" cy="228" r="2" fill="#B8A080"/>
  </g>
</svg>