<svg xmlns="http://www.w3.org/2000/svg" viewBox="0 0 1200 1200" preserveAspectRatio="xMidYMid slice">
  <defs>
    <radialGradient id="bg" cx="50%" cy="50%" r="80%">
      <stop offset="0%" stop-color="#FAF5F0" />
      <stop offset="60%" stop-color="#F5E8D8" />
      <stop offset="100%" stop-color="#E8D4C0" />
    </radialGradient>
    <filter id="blur"><feGaussianBlur stdDeviation="60"/></filter>
  </defs>
  <rect width="1200" height="1200" fill="url(#bg)"/>
  <circle cx="185" cy="984" r="140" fill="#C0A070" opacity="0.17" filter="url(#blur)"/><circle cx="503" cy="1050" r="139" fill="#FAF5F0" opacity="0.17" filter="url(#blur)"/><circle cx="266" cy="989" r="185" fill="#C0A070" opacity="0.20" filter="url(#blur)"/><circle cx="154" cy="761" r="182" fill="#D4A060" opacity="0.20" filter="url(#blur)"/><circle cx="680" cy="508" r="195" fill="#FAF5F0" opacity="0.08" filter="url(#blur)"/>
  <rect x="502" y="598" width="40" height="30" rx="3" fill="none" stroke="#C0A070" stroke-width="2.5" opacity="0.3"/>
  <g opacity="0.06">
    <circle cx="922" cy="78" r="2" fill="#C0A070"/><circle cx="959" cy="1007" r="3" fill="#C0A070"/><circle cx="271" cy="438" r="3" fill="#C0A070"/><circle cx="950" cy="352" r="1" fill="#C0A070"/><circle cx="611" cy="841" r="3" fill="#C0A070"/><circle cx="258" cy="531" r="3" fill="#C0A070"/><circle cx="263" cy="813" r="3" fill="#C0A070"/><circle cx="823" cy="704" r="2" fill="#C0A070"/><circle cx="798" cy="867" r="1" fill="#C0A070"/><circle cx="201" cy="178" r="2" fill="#C0A070"/><circle cx="770" cy="421" r="2" fill="#C0A070"/><circle cx="706" cy="267" r="3" fill="#C0A070"/><circle cx="102" cy="104" r="1" fill="#C0A070"/><circle cx="703" cy="152" r="3" fill="#C0A070"/><circle cx="161" cy="56" r="2" fill="#C0A070"/>
  </g>
</svg>