<svg xmlns="http://www.w3.org/2000/svg" viewBox="0 0 1200 1200" preserveAspectRatio="xMidYMid slice">
  <defs>
    <radialGradient id="bg" cx="50%" cy="50%" r="80%">
      <stop offset="0%" stop-color="#FAF6F2" />
      <stop offset="60%" stop-color="#F0E8E0" />
      <stop offset="100%" stop-color="#DDD5CC" />
    </radialGradient>
    <filter id="blur"><feGaussianBlur stdDeviation="60"/></filter>
  </defs>
  <rect width="1200" height="1200" fill="url(#bg)"/>
  <circle cx="238" cy="1076" r="160" fill="#FAF6F2" opacity="0.14" filter="url(#blur)"/><circle cx="572" cy="293" r="159" fill="#DDD5CC" opacity="0.12" filter="url(#blur)"/><circle cx="932" cy="696" r="108" fill="#DDD5CC" opacity="0.07" filter="url(#blur)"/><circle cx="166" cy="1081" r="170" fill="#FAF6F2" opacity="0.14" filter="url(#blur)"/><circle cx="862" cy="777" r="181" fill="#B8A89A" opacity="0.11" filter="url(#blur)"/>
  <path d="M688,649 L728,599 L768,649" fill="none" stroke="#B8A89A" stroke-width="2.5" opacity="0.3"/>
  <g opacity="0.06">
    <circle cx="385" cy="106" r="1" fill="#B8A89A"/><circle cx="468" cy="103" r="1" fill="#B8A89A"/><circle cx="610" cy="209" r="1" fill="#B8A89A"/><circle cx="804" cy="757" r="3" fill="#B8A89A"/><circle cx="908" cy="347" r="3" fill="#B8A89A"/><circle cx="104" cy="539" r="1" fill="#B8A89A"/><circle cx="681" cy="1101" r="3" fill="#B8A89A"/><circle cx="882" cy="583" r="3" fill="#B8A89A"/><circle cx="435" cy="447" r="1" fill="#B8A89A"/><circle cx="198" cy="536" r="2" fill="#B8A89A"/><circle cx="388" cy="172" r="3" fill="#B8A89A"/><circle cx="919" cy="478" r="2" fill="#B8A89A"/><circle cx="770" cy="281" r="3" fill="#B8A89A"/><circle cx="846" cy="690" r="3" fill="#B8A89A"/><circle cx="1065" cy="332" r="1" fill="#B8A89A"/>
  </g>
</svg>