<svg xmlns="http://www.w3.org/2000/svg" viewBox="0 0 1200 1200" preserveAspectRatio="xMidYMid slice">
  <defs>
    <radialGradient id="bg" cx="50%" cy="50%" r="80%">
      <stop offset="0%" stop-color="#F5F0E8" />
      <stop offset="60%" stop-color="#E8DDD0" />
      <stop offset="100%" stop-color="#D4C4B0" />
    </radialGradient>
    <filter id="blur"><feGaussianBlur stdDeviation="60"/></filter>
  </defs>
  <rect width="1200" height="1200" fill="url(#bg)"/>
  <circle cx="1073" cy="818" r="100" fill="#D4C4B0" opacity="0.13" filter="url(#blur)"/><circle cx="980" cy="495" r="116" fill="#A89078" opacity="0.06" filter="url(#blur)"/><circle cx="777" cy="191" r="124" fill="#D4C4B0" opacity="0.06" filter="url(#blur)"/><circle cx="282" cy="616" r="191" fill="#F5F0E8" opacity="0.16" filter="url(#blur)"/><circle cx="530" cy="331" r="91" fill="#D4C4B0" opacity="0.09" filter="url(#blur)"/>
  <path d="M523,705 L523,675 L583,675 L583,705" fill="none" stroke="#A89078" stroke-width="2.5" opacity="0.3"/>
  <g opacity="0.06">
    <circle cx="662" cy="1033" r="2" fill="#A89078"/><circle cx="987" cy="761" r="1" fill="#A89078"/><circle cx="1118" cy="153" r="3" fill="#A89078"/><circle cx="116" cy="143" r="2" fill="#A89078"/><circle cx="917" cy="1009" r="3" fill="#A89078"/><circle cx="209" cy="1072" r="2" fill="#A89078"/><circle cx="108" cy="78" r="1" fill="#A89078"/><circle cx="94" cy="567" r="1" fill="#A89078"/><circle cx="846" cy="634" r="1" fill="#A89078"/><circle cx="482" cy="1054" r="2" fill="#A89078"/><circle cx="331" cy="1064" r="3" fill="#A89078"/><circle cx="1094" cy="204" r="3" fill="#A89078"/><circle cx="1134" cy="724" r="1" fill="#A89078"/><circle cx="75" cy="932" r="3" fill="#A89078"/><circle cx="1091" cy="574" r="3" fill="#A89078"/>
  </g>
</svg>