<svg xmlns="http://www.w3.org/2000/svg" viewBox="0 0 1200 1200" preserveAspectRatio="xMidYMid slice">
  <defs>
    <radialGradient id="bg" cx="50%" cy="50%" r="80%">
      <stop offset="0%" stop-color="#F5F0E8" />
      <stop offset="60%" stop-color="#E8DDD0" />
      <stop offset="100%" stop-color="#D4C4B0" />
    </radialGradient>
    <filter id="blur"><feGaussianBlur stdDeviation="60"/></filter>
  </defs>
  <rect width="1200" height="1200" fill="url(#bg)"/>
  <circle cx="913" cy="416" r="197" fill="#D4C4B0" opacity="0.19" filter="url(#blur)"/><circle cx="178" cy="506" r="135" fill="#A89078" opacity="0.06" filter="url(#blur)"/><circle cx="176" cy="200" r="123" fill="#F5F0E8" opacity="0.10" filter="url(#blur)"/><circle cx="796" cy="568" r="117" fill="#D4C4B0" opacity="0.18" filter="url(#blur)"/><circle cx="322" cy="768" r="99" fill="#8B7355" opacity="0.08" filter="url(#blur)"/>
  <path d="M668,750 L668,720 L728,720 L728,750" fill="none" stroke="#A89078" stroke-width="2.5" opacity="0.3"/>
  <g opacity="0.06">
    <circle cx="704" cy="1002" r="3" fill="#A89078"/><circle cx="1128" cy="141" r="1" fill="#A89078"/><circle cx="1131" cy="644" r="1" fill="#A89078"/><circle cx="444" cy="813" r="3" fill="#A89078"/><circle cx="515" cy="886" r="3" fill="#A89078"/><circle cx="806" cy="427" r="1" fill="#A89078"/><circle cx="249" cy="817" r="1" fill="#A89078"/><circle cx="1116" cy="389" r="3" fill="#A89078"/><circle cx="255" cy="456" r="1" fill="#A89078"/><circle cx="301" cy="691" r="3" fill="#A89078"/><circle cx="582" cy="382" r="1" fill="#A89078"/><circle cx="477" cy="1101" r="1" fill="#A89078"/><circle cx="214" cy="586" r="2" fill="#A89078"/><circle cx="1062" cy="1108" r="1" fill="#A89078"/><circle cx="983" cy="932" r="3" fill="#A89078"/>
  </g>
</svg>