<svg xmlns="http://www.w3.org/2000/svg" viewBox="0 0 1200 1200" preserveAspectRatio="xMidYMid slice">
  <defs>
    <radialGradient id="bg" cx="50%" cy="50%" r="80%">
      <stop offset="0%" stop-color="#FFF8F0" />
      <stop offset="60%" stop-color="#F5E6D3" />
      <stop offset="100%" stop-color="#E8D4C0" />
    </radialGradient>
    <filter id="blur"><feGaussianBlur stdDeviation="60"/></filter>
  </defs>
  <rect width="1200" height="1200" fill="url(#bg)"/>
  <circle cx="665" cy="718" r="179" fill="#E8D4C0" opacity="0.19" filter="url(#blur)"/><circle cx="200" cy="466" r="190" fill="#E8D4C0" opacity="0.17" filter="url(#blur)"/><circle cx="166" cy="533" r="82" fill="#FFF8F0" opacity="0.18" filter="url(#blur)"/><circle cx="501" cy="587" r="182" fill="#FFF8F0" opacity="0.17" filter="url(#blur)"/><circle cx="672" cy="705" r="109" fill="#D4A574" opacity="0.08" filter="url(#blur)"/>
  <circle cx="565" cy="559" r="50" fill="none" stroke="#C9A87C" stroke-width="2.5" opacity="0.3"/><circle cx="545" cy="559" r="35" fill="none" stroke="#C9A87C" stroke-width="2" opacity="0.25"/><circle cx="585" cy="559" r="35" fill="none" stroke="#C9A87C" stroke-width="2" opacity="0.25"/>
  <g opacity="0.06">
    <circle cx="1095" cy="1147" r="3" fill="#C9A87C"/><circle cx="582" cy="1065" r="3" fill="#C9A87C"/><circle cx="1093" cy="273" r="2" fill="#C9A87C"/><circle cx="223" cy="460" r="3" fill="#C9A87C"/><circle cx="785" cy="537" r="1" fill="#C9A87C"/><circle cx="793" cy="633" r="3" fill="#C9A87C"/><circle cx="706" cy="732" r="2" fill="#C9A87C"/><circle cx="831" cy="938" r="2" fill="#C9A87C"/><circle cx="591" cy="766" r="2" fill="#C9A87C"/><circle cx="330" cy="248" r="3" fill="#C9A87C"/><circle cx="660" cy="173" r="2" fill="#C9A87C"/><circle cx="1022" cy="782" r="3" fill="#C9A87C"/><circle cx="302" cy="593" r="1" fill="#C9A87C"/><circle cx="220" cy="225" r="1" fill="#C9A87C"/><circle cx="230" cy="339" r="3" fill="#C9A87C"/>
  </g>
</svg>