<svg xmlns="http://www.w3.org/2000/svg" viewBox="0 0 1200 1200" preserveAspectRatio="xMidYMid slice">
  <defs>
    <radialGradient id="bg" cx="50%" cy="50%" r="80%">
      <stop offset="0%" stop-color="#FFF8F0" />
      <stop offset="60%" stop-color="#F5E6D3" />
      <stop offset="100%" stop-color="#E8D4C0" />
    </radialGradient>
    <filter id="blur"><feGaussianBlur stdDeviation="60"/></filter>
  </defs>
  <rect width="1200" height="1200" fill="url(#bg)"/>
  <circle cx="1079" cy="392" r="119" fill="#E8D4C0" opacity="0.10" filter="url(#blur)"/><circle cx="933" cy="798" r="126" fill="#FFF8F0" opacity="0.14" filter="url(#blur)"/><circle cx="107" cy="964" r="99" fill="#C9A87C" opacity="0.08" filter="url(#blur)"/><circle cx="694" cy="959" r="145" fill="#E8D4C0" opacity="0.18" filter="url(#blur)"/><circle cx="389" cy="999" r="175" fill="#C9A87C" opacity="0.06" filter="url(#blur)"/>
  <circle cx="677" cy="658" r="50" fill="none" stroke="#C9A87C" stroke-width="2.5" opacity="0.3"/><circle cx="657" cy="658" r="35" fill="none" stroke="#C9A87C" stroke-width="2" opacity="0.25"/><circle cx="697" cy="658" r="35" fill="none" stroke="#C9A87C" stroke-width="2" opacity="0.25"/>
  <g opacity="0.06">
    <circle cx="726" cy="543" r="2" fill="#C9A87C"/><circle cx="108" cy="210" r="3" fill="#C9A87C"/><circle cx="939" cy="609" r="3" fill="#C9A87C"/><circle cx="227" cy="855" r="2" fill="#C9A87C"/><circle cx="421" cy="139" r="2" fill="#C9A87C"/><circle cx="544" cy="160" r="1" fill="#C9A87C"/><circle cx="409" cy="1118" r="1" fill="#C9A87C"/><circle cx="454" cy="544" r="2" fill="#C9A87C"/><circle cx="1049" cy="256" r="2" fill="#C9A87C"/><circle cx="776" cy="871" r="3" fill="#C9A87C"/><circle cx="1119" cy="785" r="2" fill="#C9A87C"/><circle cx="64" cy="854" r="3" fill="#C9A87C"/><circle cx="574" cy="709" r="1" fill="#C9A87C"/><circle cx="628" cy="1055" r="1" fill="#C9A87C"/><circle cx="1071" cy="252" r="1" fill="#C9A87C"/>
  </g>
</svg>