<svg xmlns="http://www.w3.org/2000/svg" viewBox="0 0 1200 1200" preserveAspectRatio="xMidYMid slice">
  <defs>
    <radialGradient id="bg" cx="50%" cy="50%" r="80%">
      <stop offset="0%" stop-color="#FAF6F2" />
      <stop offset="60%" stop-color="#F0E8E0" />
      <stop offset="100%" stop-color="#DDD5CC" />
    </radialGradient>
    <filter id="blur"><feGaussianBlur stdDeviation="60"/></filter>
  </defs>
  <rect width="1200" height="1200" fill="url(#bg)"/>
  <circle cx="876" cy="784" r="128" fill="#9A8B7A" opacity="0.19" filter="url(#blur)"/><circle cx="258" cy="222" r="120" fill="#B8A89A" opacity="0.10" filter="url(#blur)"/><circle cx="514" cy="328" r="135" fill="#DDD5CC" opacity="0.15" filter="url(#blur)"/><circle cx="420" cy="619" r="99" fill="#9A8B7A" opacity="0.10" filter="url(#blur)"/><circle cx="678" cy="363" r="113" fill="#FAF6F2" opacity="0.10" filter="url(#blur)"/>
  <path d="M652,635 L692,585 L732,635" fill="none" stroke="#B8A89A" stroke-width="2.5" opacity="0.3"/>
  <g opacity="0.06">
    <circle cx="173" cy="371" r="1" fill="#B8A89A"/><circle cx="306" cy="359" r="2" fill="#B8A89A"/><circle cx="212" cy="995" r="1" fill="#B8A89A"/><circle cx="490" cy="1099" r="1" fill="#B8A89A"/><circle cx="920" cy="600" r="1" fill="#B8A89A"/><circle cx="562" cy="560" r="3" fill="#B8A89A"/><circle cx="219" cy="461" r="1" fill="#B8A89A"/><circle cx="441" cy="327" r="3" fill="#B8A89A"/><circle cx="312" cy="1061" r="3" fill="#B8A89A"/><circle cx="244" cy="655" r="3" fill="#B8A89A"/><circle cx="176" cy="370" r="1" fill="#B8A89A"/><circle cx="634" cy="616" r="1" fill="#B8A89A"/><circle cx="224" cy="94" r="3" fill="#B8A89A"/><circle cx="461" cy="415" r="2" fill="#B8A89A"/><circle cx="1046" cy="800" r="1" fill="#B8A89A"/>
  </g>
</svg>