<svg xmlns="http://www.w3.org/2000/svg" viewBox="0 0 1200 1200" preserveAspectRatio="xMidYMid slice">
  <defs>
    <radialGradient id="bg" cx="50%" cy="50%" r="80%">
      <stop offset="0%" stop-color="#FAF6F2" />
      <stop offset="60%" stop-color="#F0E8E0" />
      <stop offset="100%" stop-color="#DDD5CC" />
    </radialGradient>
    <filter id="blur"><feGaussianBlur stdDeviation="60"/></filter>
  </defs>
  <rect width="1200" height="1200" fill="url(#bg)"/>
  <circle cx="800" cy="298" r="157" fill="#FAF6F2" opacity="0.06" filter="url(#blur)"/><circle cx="204" cy="130" r="152" fill="#DDD5CC" opacity="0.15" filter="url(#blur)"/><circle cx="684" cy="965" r="199" fill="#9A8B7A" opacity="0.07" filter="url(#blur)"/><circle cx="498" cy="672" r="100" fill="#9A8B7A" opacity="0.10" filter="url(#blur)"/><circle cx="501" cy="855" r="141" fill="#DDD5CC" opacity="0.11" filter="url(#blur)"/>
  <path d="M539,588 L579,538 L619,588" fill="none" stroke="#B8A89A" stroke-width="2.5" opacity="0.3"/>
  <g opacity="0.06">
    <circle cx="208" cy="1136" r="1" fill="#B8A89A"/><circle cx="808" cy="1093" r="3" fill="#B8A89A"/><circle cx="987" cy="589" r="1" fill="#B8A89A"/><circle cx="893" cy="255" r="2" fill="#B8A89A"/><circle cx="934" cy="841" r="3" fill="#B8A89A"/><circle cx="830" cy="55" r="1" fill="#B8A89A"/><circle cx="458" cy="1018" r="3" fill="#B8A89A"/><circle cx="1097" cy="420" r="1" fill="#B8A89A"/><circle cx="557" cy="779" r="1" fill="#B8A89A"/><circle cx="452" cy="1056" r="1" fill="#B8A89A"/><circle cx="767" cy="323" r="3" fill="#B8A89A"/><circle cx="953" cy="67" r="1" fill="#B8A89A"/><circle cx="1014" cy="864" r="2" fill="#B8A89A"/><circle cx="453" cy="170" r="2" fill="#B8A89A"/><circle cx="959" cy="186" r="1" fill="#B8A89A"/>
  </g>
</svg>