<svg xmlns="http://www.w3.org/2000/svg" viewBox="0 0 1200 1200" preserveAspectRatio="xMidYMid slice">
  <defs>
    <radialGradient id="bg" cx="50%" cy="50%" r="80%">
      <stop offset="0%" stop-color="#FAF5F0" />
      <stop offset="60%" stop-color="#F5E8D8" />
      <stop offset="100%" stop-color="#E8D4C0" />
    </radialGradient>
    <filter id="blur"><feGaussianBlur stdDeviation="60"/></filter>
  </defs>
  <rect width="1200" height="1200" fill="url(#bg)"/>
  <circle cx="726" cy="674" r="119" fill="#FAF5F0" opacity="0.09" filter="url(#blur)"/><circle cx="818" cy="121" r="180" fill="#D4A060" opacity="0.20" filter="url(#blur)"/><circle cx="1036" cy="148" r="140" fill="#E8D4C0" opacity="0.11" filter="url(#blur)"/><circle cx="654" cy="188" r="163" fill="#FAF5F0" opacity="0.14" filter="url(#blur)"/><circle cx="1086" cy="399" r="103" fill="#FAF5F0" opacity="0.18" filter="url(#blur)"/>
  <rect x="573" y="489" width="40" height="30" rx="3" fill="none" stroke="#C0A070" stroke-width="2.5" opacity="0.3"/>
  <g opacity="0.06">
    <circle cx="828" cy="1105" r="1" fill="#C0A070"/><circle cx="1060" cy="930" r="1" fill="#C0A070"/><circle cx="1084" cy="321" r="2" fill="#C0A070"/><circle cx="774" cy="850" r="1" fill="#C0A070"/><circle cx="736" cy="738" r="3" fill="#C0A070"/><circle cx="698" cy="745" r="1" fill="#C0A070"/><circle cx="507" cy="1088" r="3" fill="#C0A070"/><circle cx="424" cy="827" r="1" fill="#C0A070"/><circle cx="300" cy="365" r="3" fill="#C0A070"/><circle cx="839" cy="716" r="2" fill="#C0A070"/><circle cx="950" cy="52" r="2" fill="#C0A070"/><circle cx="1000" cy="940" r="2" fill="#C0A070"/><circle cx="1136" cy="378" r="2" fill="#C0A070"/><circle cx="927" cy="372" r="2" fill="#C0A070"/><circle cx="1150" cy="528" r="2" fill="#C0A070"/>
  </g>
</svg>