<svg xmlns="http://www.w3.org/2000/svg" viewBox="0 0 1200 1200" preserveAspectRatio="xMidYMid slice">
  <defs>
    <radialGradient id="bg" cx="50%" cy="50%" r="80%">
      <stop offset="0%" stop-color="#FAF5F0" />
      <stop offset="60%" stop-color="#F5E8D8" />
      <stop offset="100%" stop-color="#E8D4C0" />
    </radialGradient>
    <filter id="blur"><feGaussianBlur stdDeviation="60"/></filter>
  </defs>
  <rect width="1200" height="1200" fill="url(#bg)"/>
  <circle cx="612" cy="897" r="164" fill="#FAF5F0" opacity="0.16" filter="url(#blur)"/><circle cx="338" cy="827" r="169" fill="#D4A060" opacity="0.11" filter="url(#blur)"/><circle cx="1089" cy="972" r="155" fill="#E8D4C0" opacity="0.07" filter="url(#blur)"/><circle cx="1009" cy="1040" r="157" fill="#C0A070" opacity="0.20" filter="url(#blur)"/><circle cx="437" cy="1089" r="169" fill="#FAF5F0" opacity="0.07" filter="url(#blur)"/>
  <rect x="440" y="473" width="40" height="30" rx="3" fill="none" stroke="#C0A070" stroke-width="2.5" opacity="0.3"/>
  <g opacity="0.06">
    <circle cx="856" cy="57" r="1" fill="#C0A070"/><circle cx="1053" cy="725" r="1" fill="#C0A070"/><circle cx="483" cy="1132" r="2" fill="#C0A070"/><circle cx="491" cy="1062" r="1" fill="#C0A070"/><circle cx="452" cy="867" r="1" fill="#C0A070"/><circle cx="801" cy="680" r="1" fill="#C0A070"/><circle cx="558" cy="443" r="3" fill="#C0A070"/><circle cx="703" cy="981" r="1" fill="#C0A070"/><circle cx="938" cy="662" r="2" fill="#C0A070"/><circle cx="292" cy="145" r="3" fill="#C0A070"/><circle cx="70" cy="595" r="2" fill="#C0A070"/><circle cx="339" cy="374" r="1" fill="#C0A070"/><circle cx="803" cy="220" r="1" fill="#C0A070"/><circle cx="971" cy="955" r="2" fill="#C0A070"/><circle cx="889" cy="1081" r="2" fill="#C0A070"/>
  </g>
</svg>