<svg xmlns="http://www.w3.org/2000/svg" viewBox="0 0 1200 1200" preserveAspectRatio="xMidYMid slice">
  <defs>
    <radialGradient id="bg" cx="50%" cy="50%" r="80%">
      <stop offset="0%" stop-color="#F5F0E8" />
      <stop offset="60%" stop-color="#E8DDD0" />
      <stop offset="100%" stop-color="#D4C4B0" />
    </radialGradient>
    <filter id="blur"><feGaussianBlur stdDeviation="60"/></filter>
  </defs>
  <rect width="1200" height="1200" fill="url(#bg)"/>
  <circle cx="278" cy="753" r="85" fill="#D4C4B0" opacity="0.15" filter="url(#blur)"/><circle cx="272" cy="1075" r="200" fill="#F5F0E8" opacity="0.10" filter="url(#blur)"/><circle cx="155" cy="673" r="171" fill="#A89078" opacity="0.10" filter="url(#blur)"/><circle cx="566" cy="292" r="139" fill="#F5F0E8" opacity="0.19" filter="url(#blur)"/><circle cx="595" cy="201" r="140" fill="#A89078" opacity="0.13" filter="url(#blur)"/>
  <path d="M708,623 L708,593 L768,593 L768,623" fill="none" stroke="#A89078" stroke-width="2.5" opacity="0.3"/>
  <g opacity="0.06">
    <circle cx="666" cy="689" r="3" fill="#A89078"/><circle cx="521" cy="749" r="2" fill="#A89078"/><circle cx="803" cy="632" r="1" fill="#A89078"/><circle cx="92" cy="611" r="1" fill="#A89078"/><circle cx="792" cy="709" r="1" fill="#A89078"/><circle cx="458" cy="989" r="1" fill="#A89078"/><circle cx="565" cy="1062" r="3" fill="#A89078"/><circle cx="692" cy="688" r="3" fill="#A89078"/><circle cx="924" cy="845" r="3" fill="#A89078"/><circle cx="315" cy="740" r="3" fill="#A89078"/><circle cx="140" cy="856" r="2" fill="#A89078"/><circle cx="147" cy="1132" r="2" fill="#A89078"/><circle cx="269" cy="532" r="2" fill="#A89078"/><circle cx="837" cy="854" r="1" fill="#A89078"/><circle cx="757" cy="1097" r="1" fill="#A89078"/>
  </g>
</svg>