<svg xmlns="http://www.w3.org/2000/svg" viewBox="0 0 1200 1200" preserveAspectRatio="xMidYMid slice">
  <defs>
    <radialGradient id="bg" cx="50%" cy="50%" r="80%">
      <stop offset="0%" stop-color="#F5F0E8" />
      <stop offset="60%" stop-color="#E8DDD0" />
      <stop offset="100%" stop-color="#D4C4B0" />
    </radialGradient>
    <filter id="blur"><feGaussianBlur stdDeviation="60"/></filter>
  </defs>
  <rect width="1200" height="1200" fill="url(#bg)"/>
  <circle cx="958" cy="251" r="144" fill="#8B7355" opacity="0.16" filter="url(#blur)"/><circle cx="1087" cy="723" r="144" fill="#8B7355" opacity="0.14" filter="url(#blur)"/><circle cx="830" cy="377" r="196" fill="#F5F0E8" opacity="0.06" filter="url(#blur)"/><circle cx="1002" cy="541" r="103" fill="#A89078" opacity="0.06" filter="url(#blur)"/><circle cx="620" cy="108" r="81" fill="#8B7355" opacity="0.15" filter="url(#blur)"/>
  <path d="M437,482 L437,452 L497,452 L497,482" fill="none" stroke="#A89078" stroke-width="2.5" opacity="0.3"/>
  <g opacity="0.06">
    <circle cx="839" cy="483" r="2" fill="#A89078"/><circle cx="920" cy="162" r="3" fill="#A89078"/><circle cx="288" cy="825" r="2" fill="#A89078"/><circle cx="745" cy="575" r="2" fill="#A89078"/><circle cx="885" cy="897" r="1" fill="#A89078"/><circle cx="522" cy="1009" r="1" fill="#A89078"/><circle cx="57" cy="215" r="2" fill="#A89078"/><circle cx="1046" cy="450" r="2" fill="#A89078"/><circle cx="1033" cy="116" r="1" fill="#A89078"/><circle cx="1042" cy="1092" r="2" fill="#A89078"/><circle cx="900" cy="564" r="1" fill="#A89078"/><circle cx="1118" cy="189" r="2" fill="#A89078"/><circle cx="402" cy="812" r="1" fill="#A89078"/><circle cx="760" cy="879" r="3" fill="#A89078"/><circle cx="361" cy="228" r="2" fill="#A89078"/>
  </g>
</svg>