<svg xmlns="http://www.w3.org/2000/svg" viewBox="0 0 1200 1200" preserveAspectRatio="xMidYMid slice">
  <defs>
    <radialGradient id="bg" cx="50%" cy="50%" r="80%">
      <stop offset="0%" stop-color="#FAF6F2" />
      <stop offset="60%" stop-color="#F0E8E0" />
      <stop offset="100%" stop-color="#DDD5CC" />
    </radialGradient>
    <filter id="blur"><feGaussianBlur stdDeviation="60"/></filter>
  </defs>
  <rect width="1200" height="1200" fill="url(#bg)"/>
  <circle cx="775" cy="772" r="89" fill="#B8A89A" opacity="0.08" filter="url(#blur)"/><circle cx="446" cy="494" r="179" fill="#B8A89A" opacity="0.05" filter="url(#blur)"/><circle cx="943" cy="945" r="185" fill="#9A8B7A" opacity="0.08" filter="url(#blur)"/><circle cx="956" cy="1066" r="185" fill="#DDD5CC" opacity="0.20" filter="url(#blur)"/><circle cx="954" cy="516" r="118" fill="#B8A89A" opacity="0.09" filter="url(#blur)"/>
  <path d="M528,663 L568,613 L608,663" fill="none" stroke="#B8A89A" stroke-width="2.5" opacity="0.3"/>
  <g opacity="0.06">
    <circle cx="786" cy="471" r="2" fill="#B8A89A"/><circle cx="869" cy="116" r="2" fill="#B8A89A"/><circle cx="137" cy="389" r="1" fill="#B8A89A"/><circle cx="1036" cy="172" r="1" fill="#B8A89A"/><circle cx="875" cy="604" r="3" fill="#B8A89A"/><circle cx="206" cy="878" r="3" fill="#B8A89A"/><circle cx="404" cy="594" r="3" fill="#B8A89A"/><circle cx="418" cy="1098" r="2" fill="#B8A89A"/><circle cx="669" cy="829" r="1" fill="#B8A89A"/><circle cx="575" cy="1116" r="2" fill="#B8A89A"/><circle cx="645" cy="153" r="3" fill="#B8A89A"/><circle cx="343" cy="441" r="3" fill="#B8A89A"/><circle cx="865" cy="883" r="3" fill="#B8A89A"/><circle cx="796" cy="56" r="1" fill="#B8A89A"/><circle cx="434" cy="396" r="3" fill="#B8A89A"/>
  </g>
</svg>