<svg xmlns="http://www.w3.org/2000/svg" viewBox="0 0 1200 1200" preserveAspectRatio="xMidYMid slice">
  <defs>
    <radialGradient id="bg" cx="50%" cy="50%" r="80%">
      <stop offset="0%" stop-color="#F5F5F5" />
      <stop offset="60%" stop-color="#E8E8E8" />
      <stop offset="100%" stop-color="#D4D4D4" />
    </radialGradient>
    <filter id="blur"><feGaussianBlur stdDeviation="60"/></filter>
  </defs>
  <rect width="1200" height="1200" fill="url(#bg)"/>
  <circle cx="800" cy="298" r="157" fill="#F5F5F5" opacity="0.06" filter="url(#blur)"/><circle cx="204" cy="130" r="152" fill="#D4D4D4" opacity="0.15" filter="url(#blur)"/><circle cx="684" cy="965" r="199" fill="#909090" opacity="0.07" filter="url(#blur)"/><circle cx="498" cy="672" r="100" fill="#909090" opacity="0.10" filter="url(#blur)"/><circle cx="501" cy="855" r="141" fill="#D4D4D4" opacity="0.11" filter="url(#blur)"/>
  <rect x="564" y="548" width="30" height="40" rx="2" fill="none" stroke="#A0A0A0" stroke-width="2.5" opacity="0.3"/>
  <g opacity="0.06">
    <circle cx="208" cy="1136" r="1" fill="#A0A0A0"/><circle cx="808" cy="1093" r="3" fill="#A0A0A0"/><circle cx="987" cy="589" r="1" fill="#A0A0A0"/><circle cx="893" cy="255" r="2" fill="#A0A0A0"/><circle cx="934" cy="841" r="3" fill="#A0A0A0"/><circle cx="830" cy="55" r="1" fill="#A0A0A0"/><circle cx="458" cy="1018" r="3" fill="#A0A0A0"/><circle cx="1097" cy="420" r="1" fill="#A0A0A0"/><circle cx="557" cy="779" r="1" fill="#A0A0A0"/><circle cx="452" cy="1056" r="1" fill="#A0A0A0"/><circle cx="767" cy="323" r="3" fill="#A0A0A0"/><circle cx="953" cy="67" r="1" fill="#A0A0A0"/><circle cx="1014" cy="864" r="2" fill="#A0A0A0"/><circle cx="453" cy="170" r="2" fill="#A0A0A0"/><circle cx="959" cy="186" r="1" fill="#A0A0A0"/>
  </g>
</svg>