<svg xmlns="http://www.w3.org/2000/svg" viewBox="0 0 1200 1200" preserveAspectRatio="xMidYMid slice">
  <defs>
    <radialGradient id="bg" cx="50%" cy="50%" r="80%">
      <stop offset="0%" stop-color="#F5F5F0" />
      <stop offset="60%" stop-color="#E8E8E0" />
      <stop offset="100%" stop-color="#D4D4CC" />
    </radialGradient>
    <filter id="blur"><feGaussianBlur stdDeviation="60"/></filter>
  </defs>
  <rect width="1200" height="1200" fill="url(#bg)"/>
  <circle cx="105" cy="277" r="162" fill="#F5F5F0" opacity="0.19" filter="url(#blur)"/><circle cx="481" cy="474" r="197" fill="#D4D4CC" opacity="0.09" filter="url(#blur)"/><circle cx="953" cy="712" r="157" fill="#A0A090" opacity="0.15" filter="url(#blur)"/><circle cx="106" cy="987" r="115" fill="#909080" opacity="0.08" filter="url(#blur)"/><circle cx="565" cy="1080" r="140" fill="#909080" opacity="0.13" filter="url(#blur)"/>
  <rect x="702" y="585" width="30" height="40" rx="2" fill="none" stroke="#A0A090" stroke-width="2.5" opacity="0.3"/><line x1="709" y1="597" x2="725" y2="597" stroke="#A0A090" stroke-width="2" opacity="0.2"/><line x1="709" y1="607" x2="725" y2="607" stroke="#A0A090" stroke-width="2" opacity="0.2"/>
  <g opacity="0.06">
    <circle cx="502" cy="100" r="1" fill="#A0A090"/><circle cx="1150" cy="588" r="3" fill="#A0A090"/><circle cx="774" cy="53" r="3" fill="#A0A090"/><circle cx="349" cy="87" r="3" fill="#A0A090"/><circle cx="949" cy="444" r="3" fill="#A0A090"/><circle cx="1054" cy="931" r="3" fill="#A0A090"/><circle cx="934" cy="466" r="1" fill="#A0A090"/><circle cx="466" cy="820" r="1" fill="#A0A090"/><circle cx="431" cy="907" r="2" fill="#A0A090"/><circle cx="898" cy="1111" r="2" fill="#A0A090"/><circle cx="126" cy="413" r="3" fill="#A0A090"/><circle cx="228" cy="665" r="3" fill="#A0A090"/><circle cx="531" cy="598" r="3" fill="#A0A090"/><circle cx="552" cy="67" r="1" fill="#A0A090"/><circle cx="766" cy="140" r="2" fill="#A0A090"/>
  </g>
</svg>