<svg xmlns="http://www.w3.org/2000/svg" viewBox="0 0 1200 1200" preserveAspectRatio="xMidYMid slice">
  <defs>
    <radialGradient id="bg" cx="50%" cy="50%" r="80%">
      <stop offset="0%" stop-color="#F0F5FA" />
      <stop offset="60%" stop-color="#E0E8F0" />
      <stop offset="100%" stop-color="#CCD4E0" />
    </radialGradient>
    <filter id="blur"><feGaussianBlur stdDeviation="60"/></filter>
  </defs>
  <rect width="1200" height="1200" fill="url(#bg)"/>
  <circle cx="936" cy="651" r="146" fill="#CCD4E0" opacity="0.08" filter="url(#blur)"/><circle cx="309" cy="960" r="105" fill="#CCD4E0" opacity="0.09" filter="url(#blur)"/><circle cx="756" cy="237" r="88" fill="#CCD4E0" opacity="0.10" filter="url(#blur)"/><circle cx="920" cy="296" r="192" fill="#90A0C0" opacity="0.14" filter="url(#blur)"/><circle cx="441" cy="1093" r="183" fill="#8090B0" opacity="0.16" filter="url(#blur)"/>
  <path d="M443,689 L443,669 L453,659 L473,659 L483,669 L483,689 L473,699 L453,699 Z" fill="none" stroke="#90A0C0" stroke-width="2.5" opacity="0.3"/>
  <g opacity="0.06">
    <circle cx="105" cy="205" r="1" fill="#90A0C0"/><circle cx="448" cy="340" r="1" fill="#90A0C0"/><circle cx="1007" cy="1076" r="2" fill="#90A0C0"/><circle cx="298" cy="647" r="3" fill="#90A0C0"/><circle cx="268" cy="440" r="2" fill="#90A0C0"/><circle cx="888" cy="329" r="1" fill="#90A0C0"/><circle cx="614" cy="265" r="1" fill="#90A0C0"/><circle cx="787" cy="1119" r="3" fill="#90A0C0"/><circle cx="54" cy="793" r="1" fill="#90A0C0"/><circle cx="1095" cy="166" r="3" fill="#90A0C0"/><circle cx="1109" cy="620" r="1" fill="#90A0C0"/><circle cx="500" cy="271" r="3" fill="#90A0C0"/><circle cx="530" cy="154" r="3" fill="#90A0C0"/><circle cx="723" cy="945" r="2" fill="#90A0C0"/><circle cx="250" cy="1074" r="3" fill="#90A0C0"/>
  </g>
</svg>