<svg xmlns="http://www.w3.org/2000/svg" viewBox="0 0 1200 1200" preserveAspectRatio="xMidYMid slice">
  <defs>
    <radialGradient id="bg" cx="50%" cy="50%" r="80%">
      <stop offset="0%" stop-color="#FFF8F0" />
      <stop offset="60%" stop-color="#F5E6D3" />
      <stop offset="100%" stop-color="#E8D4C0" />
    </radialGradient>
    <filter id="blur"><feGaussianBlur stdDeviation="60"/></filter>
  </defs>
  <rect width="1200" height="1200" fill="url(#bg)"/>
  <circle cx="531" cy="293" r="100" fill="#C9A87C" opacity="0.07" filter="url(#blur)"/><circle cx="1026" cy="383" r="96" fill="#FFF8F0" opacity="0.08" filter="url(#blur)"/><circle cx="826" cy="1006" r="196" fill="#FFF8F0" opacity="0.15" filter="url(#blur)"/><circle cx="207" cy="963" r="102" fill="#C9A87C" opacity="0.14" filter="url(#blur)"/><circle cx="473" cy="566" r="136" fill="#D4A574" opacity="0.11" filter="url(#blur)"/>
  <circle cx="696" cy="507" r="50" fill="none" stroke="#C9A87C" stroke-width="2.5" opacity="0.3"/><circle cx="676" cy="507" r="35" fill="none" stroke="#C9A87C" stroke-width="2" opacity="0.25"/><circle cx="716" cy="507" r="35" fill="none" stroke="#C9A87C" stroke-width="2" opacity="0.25"/>
  <g opacity="0.06">
    <circle cx="204" cy="238" r="3" fill="#C9A87C"/><circle cx="877" cy="96" r="2" fill="#C9A87C"/><circle cx="800" cy="761" r="1" fill="#C9A87C"/><circle cx="515" cy="637" r="1" fill="#C9A87C"/><circle cx="351" cy="543" r="1" fill="#C9A87C"/><circle cx="440" cy="1053" r="2" fill="#C9A87C"/><circle cx="461" cy="54" r="1" fill="#C9A87C"/><circle cx="743" cy="794" r="2" fill="#C9A87C"/><circle cx="259" cy="469" r="1" fill="#C9A87C"/><circle cx="73" cy="510" r="3" fill="#C9A87C"/><circle cx="1015" cy="159" r="2" fill="#C9A87C"/><circle cx="568" cy="324" r="2" fill="#C9A87C"/><circle cx="388" cy="976" r="1" fill="#C9A87C"/><circle cx="462" cy="877" r="2" fill="#C9A87C"/><circle cx="641" cy="1111" r="3" fill="#C9A87C"/>
  </g>
</svg>