<svg xmlns="http://www.w3.org/2000/svg" viewBox="0 0 1200 1200" preserveAspectRatio="xMidYMid slice">
  <defs>
    <radialGradient id="bg" cx="50%" cy="50%" r="80%">
      <stop offset="0%" stop-color="#FFF8F0" />
      <stop offset="60%" stop-color="#F5E6D3" />
      <stop offset="100%" stop-color="#E8D4C0" />
    </radialGradient>
    <filter id="blur"><feGaussianBlur stdDeviation="60"/></filter>
  </defs>
  <rect width="1200" height="1200" fill="url(#bg)"/>
  <circle cx="611" cy="179" r="109" fill="#C9A87C" opacity="0.11" filter="url(#blur)"/><circle cx="713" cy="646" r="170" fill="#E8D4C0" opacity="0.06" filter="url(#blur)"/><circle cx="442" cy="220" r="184" fill="#D4A574" opacity="0.16" filter="url(#blur)"/><circle cx="221" cy="1071" r="168" fill="#C9A87C" opacity="0.18" filter="url(#blur)"/><circle cx="887" cy="799" r="89" fill="#FFF8F0" opacity="0.11" filter="url(#blur)"/>
  <circle cx="560" cy="478" r="50" fill="none" stroke="#C9A87C" stroke-width="2.5" opacity="0.3"/><circle cx="540" cy="478" r="35" fill="none" stroke="#C9A87C" stroke-width="2" opacity="0.25"/><circle cx="580" cy="478" r="35" fill="none" stroke="#C9A87C" stroke-width="2" opacity="0.25"/>
  <g opacity="0.06">
    <circle cx="607" cy="129" r="1" fill="#C9A87C"/><circle cx="400" cy="341" r="1" fill="#C9A87C"/><circle cx="808" cy="961" r="1" fill="#C9A87C"/><circle cx="300" cy="473" r="2" fill="#C9A87C"/><circle cx="388" cy="474" r="2" fill="#C9A87C"/><circle cx="1009" cy="916" r="3" fill="#C9A87C"/><circle cx="722" cy="156" r="1" fill="#C9A87C"/><circle cx="128" cy="898" r="1" fill="#C9A87C"/><circle cx="1101" cy="240" r="2" fill="#C9A87C"/><circle cx="579" cy="1045" r="1" fill="#C9A87C"/><circle cx="449" cy="423" r="1" fill="#C9A87C"/><circle cx="469" cy="371" r="2" fill="#C9A87C"/><circle cx="309" cy="300" r="1" fill="#C9A87C"/><circle cx="205" cy="109" r="3" fill="#C9A87C"/><circle cx="950" cy="936" r="1" fill="#C9A87C"/>
  </g>
</svg>