<svg xmlns="http://www.w3.org/2000/svg" viewBox="0 0 1200 1200" preserveAspectRatio="xMidYMid slice">
  <defs>
    <radialGradient id="bg" cx="50%" cy="50%" r="80%">
      <stop offset="0%" stop-color="#F0F5FA" />
      <stop offset="60%" stop-color="#E0E8F0" />
      <stop offset="100%" stop-color="#CCD4E0" />
    </radialGradient>
    <filter id="blur"><feGaussianBlur stdDeviation="60"/></filter>
  </defs>
  <rect width="1200" height="1200" fill="url(#bg)"/>
  <circle cx="227" cy="422" r="136" fill="#F0F5FA" opacity="0.15" filter="url(#blur)"/><circle cx="162" cy="260" r="198" fill="#CCD4E0" opacity="0.16" filter="url(#blur)"/><circle cx="366" cy="215" r="119" fill="#90A0C0" opacity="0.19" filter="url(#blur)"/><circle cx="329" cy="510" r="160" fill="#F0F5FA" opacity="0.10" filter="url(#blur)"/><circle cx="604" cy="551" r="168" fill="#F0F5FA" opacity="0.12" filter="url(#blur)"/>
  <path d="M665,553 L665,533 L675,523 L695,523 L705,533 L705,553 L695,563 L675,563 Z" fill="none" stroke="#90A0C0" stroke-width="2.5" opacity="0.3"/>
  <g opacity="0.06">
    <circle cx="1083" cy="341" r="1" fill="#90A0C0"/><circle cx="504" cy="1034" r="2" fill="#90A0C0"/><circle cx="803" cy="429" r="1" fill="#90A0C0"/><circle cx="749" cy="965" r="2" fill="#90A0C0"/><circle cx="339" cy="282" r="2" fill="#90A0C0"/><circle cx="770" cy="763" r="1" fill="#90A0C0"/><circle cx="365" cy="461" r="3" fill="#90A0C0"/><circle cx="276" cy="780" r="1" fill="#90A0C0"/><circle cx="659" cy="1097" r="1" fill="#90A0C0"/><circle cx="124" cy="1125" r="1" fill="#90A0C0"/><circle cx="235" cy="883" r="3" fill="#90A0C0"/><circle cx="989" cy="999" r="3" fill="#90A0C0"/><circle cx="760" cy="467" r="1" fill="#90A0C0"/><circle cx="376" cy="807" r="1" fill="#90A0C0"/><circle cx="395" cy="300" r="3" fill="#90A0C0"/>
  </g>
</svg>