<svg xmlns="http://www.w3.org/2000/svg" viewBox="0 0 1200 1200" preserveAspectRatio="xMidYMid slice">
  <defs>
    <radialGradient id="bg" cx="50%" cy="50%" r="80%">
      <stop offset="0%" stop-color="#F0F0E0" />
      <stop offset="60%" stop-color="#E8E8D8" />
      <stop offset="100%" stop-color="#D4D4C0" />
    </radialGradient>
    <filter id="blur"><feGaussianBlur stdDeviation="60"/></filter>
  </defs>
  <rect width="1200" height="1200" fill="url(#bg)"/>
  <circle cx="899" cy="801" r="139" fill="#D4D4C0" opacity="0.14" filter="url(#blur)"/><circle cx="383" cy="186" r="198" fill="#8B8B6B" opacity="0.14" filter="url(#blur)"/><circle cx="624" cy="1064" r="158" fill="#A0A080" opacity="0.11" filter="url(#blur)"/><circle cx="426" cy="974" r="172" fill="#A0A080" opacity="0.15" filter="url(#blur)"/><circle cx="118" cy="716" r="94" fill="#F0F0E0" opacity="0.17" filter="url(#blur)"/>
  <circle cx="514" cy="496" r="40" fill="none" stroke="#A0A080" stroke-width="2.5" opacity="0.3"/><circle cx="499" cy="481" r="15" fill="none" stroke="#A0A080" stroke-width="2" opacity="0.25"/><circle cx="529" cy="481" r="15" fill="none" stroke="#A0A080" stroke-width="2" opacity="0.25"/><circle cx="514" cy="516" r="15" fill="none" stroke="#A0A080" stroke-width="2" opacity="0.25"/>
  <g opacity="0.06">
    <circle cx="959" cy="741" r="3" fill="#A0A080"/><circle cx="358" cy="1065" r="3" fill="#A0A080"/><circle cx="853" cy="864" r="3" fill="#A0A080"/><circle cx="356" cy="508" r="1" fill="#A0A080"/><circle cx="1046" cy="264" r="1" fill="#A0A080"/><circle cx="477" cy="408" r="3" fill="#A0A080"/><circle cx="972" cy="531" r="3" fill="#A0A080"/><circle cx="275" cy="284" r="1" fill="#A0A080"/><circle cx="1105" cy="307" r="1" fill="#A0A080"/><circle cx="1140" cy="759" r="1" fill="#A0A080"/><circle cx="67" cy="720" r="2" fill="#A0A080"/><circle cx="224" cy="509" r="2" fill="#A0A080"/><circle cx="1041" cy="763" r="3" fill="#A0A080"/><circle cx="549" cy="797" r="1" fill="#A0A080"/><circle cx="1057" cy="686" r="3" fill="#A0A080"/>
  </g>
</svg>