<svg xmlns="http://www.w3.org/2000/svg" viewBox="0 0 1200 1200" preserveAspectRatio="xMidYMid slice">
  <defs>
    <radialGradient id="bg" cx="50%" cy="50%" r="80%">
      <stop offset="0%" stop-color="#F5F0E8" />
      <stop offset="60%" stop-color="#E8DDD0" />
      <stop offset="100%" stop-color="#D4C4B0" />
    </radialGradient>
    <filter id="blur"><feGaussianBlur stdDeviation="60"/></filter>
  </defs>
  <rect width="1200" height="1200" fill="url(#bg)"/>
  <circle cx="227" cy="895" r="180" fill="#8B7355" opacity="0.13" filter="url(#blur)"/><circle cx="1076" cy="108" r="140" fill="#F5F0E8" opacity="0.17" filter="url(#blur)"/><circle cx="865" cy="897" r="153" fill="#8B7355" opacity="0.13" filter="url(#blur)"/><circle cx="950" cy="213" r="122" fill="#8B7355" opacity="0.14" filter="url(#blur)"/><circle cx="1021" cy="620" r="155" fill="#8B7355" opacity="0.05" filter="url(#blur)"/>
  <path d="M561,529 L561,499 L621,499 L621,529" fill="none" stroke="#A89078" stroke-width="2.5" opacity="0.3"/>
  <g opacity="0.06">
    <circle cx="729" cy="113" r="2" fill="#A89078"/><circle cx="1039" cy="1095" r="1" fill="#A89078"/><circle cx="932" cy="56" r="3" fill="#A89078"/><circle cx="58" cy="589" r="3" fill="#A89078"/><circle cx="126" cy="785" r="3" fill="#A89078"/><circle cx="616" cy="727" r="2" fill="#A89078"/><circle cx="347" cy="435" r="3" fill="#A89078"/><circle cx="302" cy="898" r="1" fill="#A89078"/><circle cx="1120" cy="83" r="3" fill="#A89078"/><circle cx="656" cy="1089" r="3" fill="#A89078"/><circle cx="505" cy="831" r="1" fill="#A89078"/><circle cx="561" cy="332" r="2" fill="#A89078"/><circle cx="147" cy="262" r="3" fill="#A89078"/><circle cx="298" cy="478" r="2" fill="#A89078"/><circle cx="513" cy="122" r="2" fill="#A89078"/>
  </g>
</svg>