<svg xmlns="http://www.w3.org/2000/svg" viewBox="0 0 1200 1200" preserveAspectRatio="xMidYMid slice">
  <defs>
    <radialGradient id="bg" cx="50%" cy="50%" r="80%">
      <stop offset="0%" stop-color="#FAF6F2" />
      <stop offset="60%" stop-color="#F0E8E0" />
      <stop offset="100%" stop-color="#DDD5CC" />
    </radialGradient>
    <filter id="blur"><feGaussianBlur stdDeviation="60"/></filter>
  </defs>
  <rect width="1200" height="1200" fill="url(#bg)"/>
  <circle cx="171" cy="1002" r="163" fill="#B8A89A" opacity="0.11" filter="url(#blur)"/><circle cx="554" cy="590" r="92" fill="#DDD5CC" opacity="0.08" filter="url(#blur)"/><circle cx="353" cy="365" r="185" fill="#FAF6F2" opacity="0.14" filter="url(#blur)"/><circle cx="534" cy="106" r="193" fill="#FAF6F2" opacity="0.11" filter="url(#blur)"/><circle cx="180" cy="256" r="125" fill="#DDD5CC" opacity="0.12" filter="url(#blur)"/>
  <path d="M686,647 L726,597 L766,647" fill="none" stroke="#B8A89A" stroke-width="2.5" opacity="0.3"/>
  <g opacity="0.06">
    <circle cx="622" cy="1091" r="3" fill="#B8A89A"/><circle cx="1040" cy="429" r="3" fill="#B8A89A"/><circle cx="818" cy="207" r="1" fill="#B8A89A"/><circle cx="523" cy="147" r="1" fill="#B8A89A"/><circle cx="244" cy="684" r="3" fill="#B8A89A"/><circle cx="360" cy="486" r="2" fill="#B8A89A"/><circle cx="335" cy="450" r="1" fill="#B8A89A"/><circle cx="331" cy="565" r="2" fill="#B8A89A"/><circle cx="475" cy="769" r="1" fill="#B8A89A"/><circle cx="1023" cy="998" r="1" fill="#B8A89A"/><circle cx="823" cy="183" r="1" fill="#B8A89A"/><circle cx="629" cy="52" r="1" fill="#B8A89A"/><circle cx="249" cy="456" r="1" fill="#B8A89A"/><circle cx="1035" cy="824" r="1" fill="#B8A89A"/><circle cx="702" cy="886" r="3" fill="#B8A89A"/>
  </g>
</svg>