<svg xmlns="http://www.w3.org/2000/svg" viewBox="0 0 1200 1200" preserveAspectRatio="xMidYMid slice">
  <defs>
    <radialGradient id="bg" cx="50%" cy="50%" r="80%">
      <stop offset="0%" stop-color="#F0F5FA" />
      <stop offset="60%" stop-color="#E0E8F0" />
      <stop offset="100%" stop-color="#CCD4E0" />
    </radialGradient>
    <filter id="blur"><feGaussianBlur stdDeviation="60"/></filter>
  </defs>
  <rect width="1200" height="1200" fill="url(#bg)"/>
  <circle cx="217" cy="733" r="190" fill="#F0F5FA" opacity="0.17" filter="url(#blur)"/><circle cx="228" cy="158" r="164" fill="#CCD4E0" opacity="0.14" filter="url(#blur)"/><circle cx="1100" cy="272" r="147" fill="#F0F5FA" opacity="0.08" filter="url(#blur)"/><circle cx="1099" cy="370" r="177" fill="#F0F5FA" opacity="0.10" filter="url(#blur)"/><circle cx="722" cy="928" r="142" fill="#8090B0" opacity="0.05" filter="url(#blur)"/>
  <path d="M508,592 L508,572 L518,562 L538,562 L548,572 L548,592 L538,602 L518,602 Z" fill="none" stroke="#90A0C0" stroke-width="2.5" opacity="0.3"/>
  <g opacity="0.06">
    <circle cx="625" cy="714" r="1" fill="#90A0C0"/><circle cx="130" cy="847" r="2" fill="#90A0C0"/><circle cx="152" cy="134" r="2" fill="#90A0C0"/><circle cx="1014" cy="686" r="1" fill="#90A0C0"/><circle cx="415" cy="424" r="3" fill="#90A0C0"/><circle cx="419" cy="342" r="3" fill="#90A0C0"/><circle cx="1057" cy="483" r="1" fill="#90A0C0"/><circle cx="306" cy="1005" r="3" fill="#90A0C0"/><circle cx="230" cy="1041" r="3" fill="#90A0C0"/><circle cx="1047" cy="365" r="1" fill="#90A0C0"/><circle cx="241" cy="68" r="3" fill="#90A0C0"/><circle cx="138" cy="637" r="1" fill="#90A0C0"/><circle cx="899" cy="244" r="3" fill="#90A0C0"/><circle cx="185" cy="434" r="3" fill="#90A0C0"/><circle cx="347" cy="852" r="3" fill="#90A0C0"/>
  </g>
</svg>