<svg xmlns="http://www.w3.org/2000/svg" viewBox="0 0 1200 1200" preserveAspectRatio="xMidYMid slice">
  <defs>
    <radialGradient id="bg" cx="50%" cy="50%" r="80%">
      <stop offset="0%" stop-color="#FAF6F2" />
      <stop offset="60%" stop-color="#F0E8E0" />
      <stop offset="100%" stop-color="#DDD5CC" />
    </radialGradient>
    <filter id="blur"><feGaussianBlur stdDeviation="60"/></filter>
  </defs>
  <rect width="1200" height="1200" fill="url(#bg)"/>
  <circle cx="1012" cy="208" r="135" fill="#DDD5CC" opacity="0.14" filter="url(#blur)"/><circle cx="134" cy="471" r="107" fill="#9A8B7A" opacity="0.13" filter="url(#blur)"/><circle cx="476" cy="809" r="193" fill="#B8A89A" opacity="0.06" filter="url(#blur)"/><circle cx="238" cy="626" r="102" fill="#B8A89A" opacity="0.13" filter="url(#blur)"/><circle cx="134" cy="1083" r="154" fill="#FAF6F2" opacity="0.19" filter="url(#blur)"/>
  <path d="M658,632 L698,582 L738,632" fill="none" stroke="#B8A89A" stroke-width="2.5" opacity="0.3"/>
  <g opacity="0.06">
    <circle cx="680" cy="357" r="3" fill="#B8A89A"/><circle cx="513" cy="375" r="3" fill="#B8A89A"/><circle cx="873" cy="975" r="1" fill="#B8A89A"/><circle cx="982" cy="52" r="3" fill="#B8A89A"/><circle cx="139" cy="164" r="1" fill="#B8A89A"/><circle cx="646" cy="65" r="3" fill="#B8A89A"/><circle cx="310" cy="590" r="1" fill="#B8A89A"/><circle cx="153" cy="337" r="2" fill="#B8A89A"/><circle cx="296" cy="241" r="1" fill="#B8A89A"/><circle cx="91" cy="503" r="3" fill="#B8A89A"/><circle cx="1098" cy="596" r="3" fill="#B8A89A"/><circle cx="811" cy="402" r="2" fill="#B8A89A"/><circle cx="594" cy="408" r="1" fill="#B8A89A"/><circle cx="916" cy="551" r="1" fill="#B8A89A"/><circle cx="490" cy="444" r="1" fill="#B8A89A"/>
  </g>
</svg>