<svg xmlns="http://www.w3.org/2000/svg" viewBox="0 0 1200 1200" preserveAspectRatio="xMidYMid slice">
  <defs>
    <radialGradient id="bg" cx="50%" cy="50%" r="80%">
      <stop offset="0%" stop-color="#F5F0E8" />
      <stop offset="60%" stop-color="#E8DDD0" />
      <stop offset="100%" stop-color="#D4C4B0" />
    </radialGradient>
    <filter id="blur"><feGaussianBlur stdDeviation="60"/></filter>
  </defs>
  <rect width="1200" height="1200" fill="url(#bg)"/>
  <circle cx="484" cy="249" r="139" fill="#A89078" opacity="0.18" filter="url(#blur)"/><circle cx="575" cy="877" r="120" fill="#F5F0E8" opacity="0.06" filter="url(#blur)"/><circle cx="851" cy="285" r="154" fill="#F5F0E8" opacity="0.17" filter="url(#blur)"/><circle cx="1001" cy="738" r="118" fill="#F5F0E8" opacity="0.14" filter="url(#blur)"/><circle cx="766" cy="1019" r="115" fill="#8B7355" opacity="0.16" filter="url(#blur)"/>
  <path d="M603,467 L603,437 L663,437 L663,467" fill="none" stroke="#A89078" stroke-width="2.5" opacity="0.3"/>
  <g opacity="0.06">
    <circle cx="499" cy="1000" r="2" fill="#A89078"/><circle cx="321" cy="676" r="1" fill="#A89078"/><circle cx="976" cy="361" r="2" fill="#A89078"/><circle cx="666" cy="804" r="2" fill="#A89078"/><circle cx="1004" cy="475" r="1" fill="#A89078"/><circle cx="796" cy="72" r="1" fill="#A89078"/><circle cx="1090" cy="107" r="3" fill="#A89078"/><circle cx="552" cy="676" r="2" fill="#A89078"/><circle cx="692" cy="321" r="1" fill="#A89078"/><circle cx="336" cy="738" r="1" fill="#A89078"/><circle cx="1115" cy="752" r="1" fill="#A89078"/><circle cx="747" cy="366" r="3" fill="#A89078"/><circle cx="895" cy="839" r="1" fill="#A89078"/><circle cx="768" cy="343" r="1" fill="#A89078"/><circle cx="712" cy="122" r="1" fill="#A89078"/>
  </g>
</svg>