<svg xmlns="http://www.w3.org/2000/svg" viewBox="0 0 1200 1200" preserveAspectRatio="xMidYMid slice">
  <defs>
    <radialGradient id="bg" cx="50%" cy="50%" r="80%">
      <stop offset="0%" stop-color="#FFF8F0" />
      <stop offset="60%" stop-color="#F5E6D3" />
      <stop offset="100%" stop-color="#E8D4C0" />
    </radialGradient>
    <filter id="blur"><feGaussianBlur stdDeviation="60"/></filter>
  </defs>
  <rect width="1200" height="1200" fill="url(#bg)"/>
  <circle cx="876" cy="784" r="128" fill="#D4A574" opacity="0.19" filter="url(#blur)"/><circle cx="258" cy="222" r="120" fill="#C9A87C" opacity="0.10" filter="url(#blur)"/><circle cx="514" cy="328" r="135" fill="#E8D4C0" opacity="0.15" filter="url(#blur)"/><circle cx="420" cy="619" r="99" fill="#D4A574" opacity="0.10" filter="url(#blur)"/><circle cx="678" cy="363" r="113" fill="#FFF8F0" opacity="0.10" filter="url(#blur)"/>
  <circle cx="692" cy="615" r="50" fill="none" stroke="#C9A87C" stroke-width="2.5" opacity="0.3"/><circle cx="672" cy="615" r="35" fill="none" stroke="#C9A87C" stroke-width="2" opacity="0.25"/><circle cx="712" cy="615" r="35" fill="none" stroke="#C9A87C" stroke-width="2" opacity="0.25"/>
  <g opacity="0.06">
    <circle cx="173" cy="371" r="1" fill="#C9A87C"/><circle cx="306" cy="359" r="2" fill="#C9A87C"/><circle cx="212" cy="995" r="1" fill="#C9A87C"/><circle cx="490" cy="1099" r="1" fill="#C9A87C"/><circle cx="920" cy="600" r="1" fill="#C9A87C"/><circle cx="562" cy="560" r="3" fill="#C9A87C"/><circle cx="219" cy="461" r="1" fill="#C9A87C"/><circle cx="441" cy="327" r="3" fill="#C9A87C"/><circle cx="312" cy="1061" r="3" fill="#C9A87C"/><circle cx="244" cy="655" r="3" fill="#C9A87C"/><circle cx="176" cy="370" r="1" fill="#C9A87C"/><circle cx="634" cy="616" r="1" fill="#C9A87C"/><circle cx="224" cy="94" r="3" fill="#C9A87C"/><circle cx="461" cy="415" r="2" fill="#C9A87C"/><circle cx="1046" cy="800" r="1" fill="#C9A87C"/>
  </g>
</svg>