<svg xmlns="http://www.w3.org/2000/svg" viewBox="0 0 1200 1200" preserveAspectRatio="xMidYMid slice">
  <defs>
    <radialGradient id="bg" cx="50%" cy="50%" r="80%">
      <stop offset="0%" stop-color="#FFF8F0" />
      <stop offset="60%" stop-color="#F5E6D3" />
      <stop offset="100%" stop-color="#E8D4C0" />
    </radialGradient>
    <filter id="blur"><feGaussianBlur stdDeviation="60"/></filter>
  </defs>
  <rect width="1200" height="1200" fill="url(#bg)"/>
  <circle cx="673" cy="394" r="102" fill="#E8D4C0" opacity="0.08" filter="url(#blur)"/><circle cx="457" cy="872" r="159" fill="#D4A574" opacity="0.13" filter="url(#blur)"/><circle cx="741" cy="312" r="151" fill="#FFF8F0" opacity="0.16" filter="url(#blur)"/><circle cx="729" cy="827" r="89" fill="#E8D4C0" opacity="0.17" filter="url(#blur)"/><circle cx="984" cy="118" r="143" fill="#E8D4C0" opacity="0.13" filter="url(#blur)"/>
  <circle cx="720" cy="550" r="50" fill="none" stroke="#C9A87C" stroke-width="2.5" opacity="0.3"/><circle cx="700" cy="550" r="35" fill="none" stroke="#C9A87C" stroke-width="2" opacity="0.25"/><circle cx="740" cy="550" r="35" fill="none" stroke="#C9A87C" stroke-width="2" opacity="0.25"/>
  <g opacity="0.06">
    <circle cx="201" cy="477" r="3" fill="#C9A87C"/><circle cx="624" cy="292" r="3" fill="#C9A87C"/><circle cx="222" cy="403" r="3" fill="#C9A87C"/><circle cx="211" cy="630" r="1" fill="#C9A87C"/><circle cx="1133" cy="680" r="3" fill="#C9A87C"/><circle cx="431" cy="212" r="2" fill="#C9A87C"/><circle cx="522" cy="1074" r="1" fill="#C9A87C"/><circle cx="780" cy="514" r="3" fill="#C9A87C"/><circle cx="262" cy="541" r="1" fill="#C9A87C"/><circle cx="946" cy="989" r="3" fill="#C9A87C"/><circle cx="83" cy="198" r="1" fill="#C9A87C"/><circle cx="1078" cy="362" r="3" fill="#C9A87C"/><circle cx="832" cy="430" r="3" fill="#C9A87C"/><circle cx="886" cy="319" r="2" fill="#C9A87C"/><circle cx="499" cy="327" r="3" fill="#C9A87C"/>
  </g>
</svg>