<svg xmlns="http://www.w3.org/2000/svg" viewBox="0 0 1200 1200" preserveAspectRatio="xMidYMid slice">
  <defs>
    <radialGradient id="bg" cx="50%" cy="50%" r="80%">
      <stop offset="0%" stop-color="#F5F5F5" />
      <stop offset="60%" stop-color="#E8E8E8" />
      <stop offset="100%" stop-color="#D4D4D4" />
    </radialGradient>
    <filter id="blur"><feGaussianBlur stdDeviation="60"/></filter>
  </defs>
  <rect width="1200" height="1200" fill="url(#bg)"/>
  <circle cx="936" cy="651" r="146" fill="#D4D4D4" opacity="0.08" filter="url(#blur)"/><circle cx="309" cy="960" r="105" fill="#D4D4D4" opacity="0.09" filter="url(#blur)"/><circle cx="756" cy="237" r="88" fill="#D4D4D4" opacity="0.10" filter="url(#blur)"/><circle cx="920" cy="296" r="192" fill="#A0A0A0" opacity="0.14" filter="url(#blur)"/><circle cx="441" cy="1093" r="183" fill="#909090" opacity="0.16" filter="url(#blur)"/>
  <rect x="448" y="659" width="30" height="40" rx="2" fill="none" stroke="#A0A0A0" stroke-width="2.5" opacity="0.3"/>
  <g opacity="0.06">
    <circle cx="105" cy="205" r="1" fill="#A0A0A0"/><circle cx="448" cy="340" r="1" fill="#A0A0A0"/><circle cx="1007" cy="1076" r="2" fill="#A0A0A0"/><circle cx="298" cy="647" r="3" fill="#A0A0A0"/><circle cx="268" cy="440" r="2" fill="#A0A0A0"/><circle cx="888" cy="329" r="1" fill="#A0A0A0"/><circle cx="614" cy="265" r="1" fill="#A0A0A0"/><circle cx="787" cy="1119" r="3" fill="#A0A0A0"/><circle cx="54" cy="793" r="1" fill="#A0A0A0"/><circle cx="1095" cy="166" r="3" fill="#A0A0A0"/><circle cx="1109" cy="620" r="1" fill="#A0A0A0"/><circle cx="500" cy="271" r="3" fill="#A0A0A0"/><circle cx="530" cy="154" r="3" fill="#A0A0A0"/><circle cx="723" cy="945" r="2" fill="#A0A0A0"/><circle cx="250" cy="1074" r="3" fill="#A0A0A0"/>
  </g>
</svg>