<svg xmlns="http://www.w3.org/2000/svg" viewBox="0 0 1200 1200" preserveAspectRatio="xMidYMid slice">
  <defs>
    <radialGradient id="bg" cx="50%" cy="50%" r="80%">
      <stop offset="0%" stop-color="#FFF8F0" />
      <stop offset="60%" stop-color="#F5E6D3" />
      <stop offset="100%" stop-color="#E8D4C0" />
    </radialGradient>
    <filter id="blur"><feGaussianBlur stdDeviation="60"/></filter>
  </defs>
  <rect width="1200" height="1200" fill="url(#bg)"/>
  <circle cx="544" cy="775" r="165" fill="#D4A574" opacity="0.10" filter="url(#blur)"/><circle cx="563" cy="267" r="140" fill="#E8D4C0" opacity="0.15" filter="url(#blur)"/><circle cx="408" cy="119" r="163" fill="#C9A87C" opacity="0.18" filter="url(#blur)"/><circle cx="446" cy="199" r="132" fill="#FFF8F0" opacity="0.16" filter="url(#blur)"/><circle cx="651" cy="1075" r="133" fill="#D4A574" opacity="0.16" filter="url(#blur)"/>
  <circle cx="478" cy="635" r="50" fill="none" stroke="#C9A87C" stroke-width="2.5" opacity="0.3"/><circle cx="458" cy="635" r="35" fill="none" stroke="#C9A87C" stroke-width="2" opacity="0.25"/><circle cx="498" cy="635" r="35" fill="none" stroke="#C9A87C" stroke-width="2" opacity="0.25"/>
  <g opacity="0.06">
    <circle cx="489" cy="1084" r="1" fill="#C9A87C"/><circle cx="489" cy="344" r="3" fill="#C9A87C"/><circle cx="929" cy="922" r="3" fill="#C9A87C"/><circle cx="713" cy="314" r="3" fill="#C9A87C"/><circle cx="922" cy="52" r="1" fill="#C9A87C"/><circle cx="414" cy="1143" r="2" fill="#C9A87C"/><circle cx="274" cy="794" r="2" fill="#C9A87C"/><circle cx="211" cy="785" r="1" fill="#C9A87C"/><circle cx="151" cy="714" r="2" fill="#C9A87C"/><circle cx="512" cy="715" r="2" fill="#C9A87C"/><circle cx="528" cy="1070" r="1" fill="#C9A87C"/><circle cx="699" cy="244" r="3" fill="#C9A87C"/><circle cx="956" cy="969" r="3" fill="#C9A87C"/><circle cx="98" cy="93" r="1" fill="#C9A87C"/><circle cx="148" cy="982" r="1" fill="#C9A87C"/>
  </g>
</svg>