<svg xmlns="http://www.w3.org/2000/svg" viewBox="0 0 1200 1200" preserveAspectRatio="xMidYMid slice">
  <defs>
    <radialGradient id="bg" cx="50%" cy="50%" r="80%">
      <stop offset="0%" stop-color="#F5F0E8" />
      <stop offset="60%" stop-color="#E8DDD0" />
      <stop offset="100%" stop-color="#D4C4B0" />
    </radialGradient>
    <filter id="blur"><feGaussianBlur stdDeviation="60"/></filter>
  </defs>
  <rect width="1200" height="1200" fill="url(#bg)"/>
  <circle cx="159" cy="473" r="102" fill="#D4C4B0" opacity="0.16" filter="url(#blur)"/><circle cx="609" cy="499" r="115" fill="#A89078" opacity="0.16" filter="url(#blur)"/><circle cx="228" cy="728" r="131" fill="#8B7355" opacity="0.10" filter="url(#blur)"/><circle cx="294" cy="198" r="125" fill="#A89078" opacity="0.16" filter="url(#blur)"/><circle cx="121" cy="573" r="102" fill="#F5F0E8" opacity="0.08" filter="url(#blur)"/>
  <path d="M429,698 L429,668 L489,668 L489,698" fill="none" stroke="#A89078" stroke-width="2.5" opacity="0.3"/>
  <g opacity="0.06">
    <circle cx="1023" cy="250" r="2" fill="#A89078"/><circle cx="1132" cy="60" r="1" fill="#A89078"/><circle cx="344" cy="399" r="3" fill="#A89078"/><circle cx="363" cy="1019" r="2" fill="#A89078"/><circle cx="762" cy="538" r="1" fill="#A89078"/><circle cx="412" cy="444" r="2" fill="#A89078"/><circle cx="1024" cy="868" r="2" fill="#A89078"/><circle cx="1024" cy="170" r="3" fill="#A89078"/><circle cx="149" cy="445" r="3" fill="#A89078"/><circle cx="448" cy="387" r="1" fill="#A89078"/><circle cx="323" cy="447" r="1" fill="#A89078"/><circle cx="680" cy="847" r="2" fill="#A89078"/><circle cx="85" cy="188" r="2" fill="#A89078"/><circle cx="254" cy="345" r="1" fill="#A89078"/><circle cx="66" cy="522" r="2" fill="#A89078"/>
  </g>
</svg>