<svg xmlns="http://www.w3.org/2000/svg" viewBox="0 0 1200 1200" preserveAspectRatio="xMidYMid slice">
  <defs>
    <radialGradient id="bg" cx="50%" cy="50%" r="80%">
      <stop offset="0%" stop-color="#F0F5FA" />
      <stop offset="60%" stop-color="#E0E8F0" />
      <stop offset="100%" stop-color="#CCD4E0" />
    </radialGradient>
    <filter id="blur"><feGaussianBlur stdDeviation="60"/></filter>
  </defs>
  <rect width="1200" height="1200" fill="url(#bg)"/>
  <circle cx="252" cy="584" r="174" fill="#F0F5FA" opacity="0.15" filter="url(#blur)"/><circle cx="341" cy="242" r="152" fill="#CCD4E0" opacity="0.18" filter="url(#blur)"/><circle cx="981" cy="535" r="92" fill="#8090B0" opacity="0.06" filter="url(#blur)"/><circle cx="1036" cy="443" r="166" fill="#90A0C0" opacity="0.16" filter="url(#blur)"/><circle cx="117" cy="926" r="164" fill="#8090B0" opacity="0.10" filter="url(#blur)"/>
  <path d="M690,463 L690,443 L700,433 L720,433 L730,443 L730,463 L720,473 L700,473 Z" fill="none" stroke="#90A0C0" stroke-width="2.5" opacity="0.3"/>
  <g opacity="0.06">
    <circle cx="333" cy="606" r="2" fill="#90A0C0"/><circle cx="294" cy="375" r="1" fill="#90A0C0"/><circle cx="162" cy="1139" r="1" fill="#90A0C0"/><circle cx="1034" cy="1028" r="3" fill="#90A0C0"/><circle cx="614" cy="993" r="1" fill="#90A0C0"/><circle cx="541" cy="952" r="2" fill="#90A0C0"/><circle cx="686" cy="264" r="1" fill="#90A0C0"/><circle cx="252" cy="280" r="1" fill="#90A0C0"/><circle cx="53" cy="618" r="1" fill="#90A0C0"/><circle cx="183" cy="437" r="3" fill="#90A0C0"/><circle cx="312" cy="79" r="3" fill="#90A0C0"/><circle cx="214" cy="875" r="3" fill="#90A0C0"/><circle cx="775" cy="54" r="2" fill="#90A0C0"/><circle cx="977" cy="81" r="1" fill="#90A0C0"/><circle cx="690" cy="929" r="1" fill="#90A0C0"/>
  </g>
</svg>