<svg xmlns="http://www.w3.org/2000/svg" viewBox="0 0 1200 1200" preserveAspectRatio="xMidYMid slice">
  <defs>
    <radialGradient id="bg" cx="50%" cy="50%" r="80%">
      <stop offset="0%" stop-color="#F5F5F0" />
      <stop offset="60%" stop-color="#E8E8E0" />
      <stop offset="100%" stop-color="#D4D4CC" />
    </radialGradient>
    <filter id="blur"><feGaussianBlur stdDeviation="60"/></filter>
  </defs>
  <rect width="1200" height="1200" fill="url(#bg)"/>
  <circle cx="920" cy="943" r="148" fill="#A0A090" opacity="0.12" filter="url(#blur)"/><circle cx="309" cy="958" r="131" fill="#909080" opacity="0.16" filter="url(#blur)"/><circle cx="540" cy="822" r="121" fill="#A0A090" opacity="0.10" filter="url(#blur)"/><circle cx="499" cy="1022" r="94" fill="#A0A090" opacity="0.05" filter="url(#blur)"/><circle cx="285" cy="579" r="100" fill="#A0A090" opacity="0.08" filter="url(#blur)"/>
  <rect x="487" y="447" width="30" height="40" rx="2" fill="none" stroke="#A0A090" stroke-width="2.5" opacity="0.3"/><line x1="494" y1="459" x2="510" y2="459" stroke="#A0A090" stroke-width="2" opacity="0.2"/><line x1="494" y1="469" x2="510" y2="469" stroke="#A0A090" stroke-width="2" opacity="0.2"/>
  <g opacity="0.06">
    <circle cx="525" cy="906" r="3" fill="#A0A090"/><circle cx="255" cy="113" r="1" fill="#A0A090"/><circle cx="1137" cy="228" r="2" fill="#A0A090"/><circle cx="1056" cy="50" r="1" fill="#A0A090"/><circle cx="826" cy="1057" r="2" fill="#A0A090"/><circle cx="75" cy="936" r="1" fill="#A0A090"/><circle cx="294" cy="922" r="3" fill="#A0A090"/><circle cx="335" cy="1069" r="2" fill="#A0A090"/><circle cx="1107" cy="459" r="1" fill="#A0A090"/><circle cx="190" cy="974" r="3" fill="#A0A090"/><circle cx="848" cy="500" r="1" fill="#A0A090"/><circle cx="54" cy="725" r="2" fill="#A0A090"/><circle cx="393" cy="130" r="3" fill="#A0A090"/><circle cx="218" cy="742" r="3" fill="#A0A090"/><circle cx="362" cy="134" r="3" fill="#A0A090"/>
  </g>
</svg>