<svg xmlns="http://www.w3.org/2000/svg" viewBox="0 0 1200 1200" preserveAspectRatio="xMidYMid slice">
  <defs>
    <radialGradient id="bg" cx="50%" cy="50%" r="80%">
      <stop offset="0%" stop-color="#F0F5F5" />
      <stop offset="60%" stop-color="#E0E8E8" />
      <stop offset="100%" stop-color="#CCD4D4" />
    </radialGradient>
    <filter id="blur"><feGaussianBlur stdDeviation="60"/></filter>
  </defs>
  <rect width="1200" height="1200" fill="url(#bg)"/>
  <circle cx="360" cy="382" r="197" fill="#90A0A0" opacity="0.14" filter="url(#blur)"/><circle cx="595" cy="1081" r="153" fill="#CCD4D4" opacity="0.16" filter="url(#blur)"/><circle cx="889" cy="976" r="111" fill="#CCD4D4" opacity="0.07" filter="url(#blur)"/><circle cx="926" cy="919" r="128" fill="#90A0A0" opacity="0.16" filter="url(#blur)"/><circle cx="540" cy="336" r="141" fill="#CCD4D4" opacity="0.14" filter="url(#blur)"/>
  <circle cx="559" cy="653" r="30" fill="none" stroke="#90A0A0" stroke-width="2.5" opacity="0.3"/><line x1="559" y1="653" x2="559" y2="633" stroke="#90A0A0" stroke-width="2" opacity="0.25"/><line x1="559" y1="653" x2="574" y2="663" stroke="#90A0A0" stroke-width="2" opacity="0.25"/>
  <g opacity="0.06">
    <circle cx="63" cy="773" r="1" fill="#90A0A0"/><circle cx="687" cy="500" r="1" fill="#90A0A0"/><circle cx="1096" cy="266" r="2" fill="#90A0A0"/><circle cx="290" cy="247" r="2" fill="#90A0A0"/><circle cx="911" cy="421" r="2" fill="#90A0A0"/><circle cx="625" cy="1015" r="1" fill="#90A0A0"/><circle cx="799" cy="621" r="3" fill="#90A0A0"/><circle cx="927" cy="282" r="1" fill="#90A0A0"/><circle cx="867" cy="407" r="3" fill="#90A0A0"/><circle cx="202" cy="253" r="1" fill="#90A0A0"/><circle cx="320" cy="262" r="1" fill="#90A0A0"/><circle cx="770" cy="801" r="3" fill="#90A0A0"/><circle cx="390" cy="436" r="3" fill="#90A0A0"/><circle cx="987" cy="372" r="1" fill="#90A0A0"/><circle cx="535" cy="167" r="3" fill="#90A0A0"/>
  </g>
</svg>