<svg xmlns="http://www.w3.org/2000/svg" viewBox="0 0 1200 1200" preserveAspectRatio="xMidYMid slice">
  <defs>
    <radialGradient id="bg" cx="50%" cy="50%" r="80%">
      <stop offset="0%" stop-color="#FAF6F2" />
      <stop offset="60%" stop-color="#F0E8E0" />
      <stop offset="100%" stop-color="#DDD5CC" />
    </radialGradient>
    <filter id="blur"><feGaussianBlur stdDeviation="60"/></filter>
  </defs>
  <rect width="1200" height="1200" fill="url(#bg)"/>
  <circle cx="596" cy="800" r="170" fill="#9A8B7A" opacity="0.19" filter="url(#blur)"/><circle cx="469" cy="922" r="150" fill="#B8A89A" opacity="0.15" filter="url(#blur)"/><circle cx="102" cy="741" r="187" fill="#FAF6F2" opacity="0.12" filter="url(#blur)"/><circle cx="471" cy="509" r="192" fill="#9A8B7A" opacity="0.20" filter="url(#blur)"/><circle cx="725" cy="1082" r="159" fill="#9A8B7A" opacity="0.07" filter="url(#blur)"/>
  <path d="M477,574 L517,524 L557,574" fill="none" stroke="#B8A89A" stroke-width="2.5" opacity="0.3"/>
  <g opacity="0.06">
    <circle cx="583" cy="400" r="2" fill="#B8A89A"/><circle cx="865" cy="139" r="2" fill="#B8A89A"/><circle cx="841" cy="564" r="2" fill="#B8A89A"/><circle cx="935" cy="928" r="3" fill="#B8A89A"/><circle cx="330" cy="737" r="1" fill="#B8A89A"/><circle cx="211" cy="184" r="3" fill="#B8A89A"/><circle cx="857" cy="678" r="1" fill="#B8A89A"/><circle cx="1131" cy="689" r="1" fill="#B8A89A"/><circle cx="626" cy="830" r="1" fill="#B8A89A"/><circle cx="235" cy="678" r="3" fill="#B8A89A"/><circle cx="1040" cy="670" r="2" fill="#B8A89A"/><circle cx="341" cy="83" r="3" fill="#B8A89A"/><circle cx="1106" cy="629" r="2" fill="#B8A89A"/><circle cx="323" cy="629" r="3" fill="#B8A89A"/><circle cx="439" cy="991" r="3" fill="#B8A89A"/>
  </g>
</svg>