<svg xmlns="http://www.w3.org/2000/svg" viewBox="0 0 1200 1200" preserveAspectRatio="xMidYMid slice">
  <defs>
    <radialGradient id="bg" cx="50%" cy="50%" r="80%">
      <stop offset="0%" stop-color="#FAF0F0" />
      <stop offset="60%" stop-color="#F5E8E8" />
      <stop offset="100%" stop-color="#E8D4D4" />
    </radialGradient>
    <filter id="blur"><feGaussianBlur stdDeviation="60"/></filter>
  </defs>
  <rect width="1200" height="1200" fill="url(#bg)"/>
  <circle cx="373" cy="428" r="191" fill="#C0A0A0" opacity="0.17" filter="url(#blur)"/><circle cx="526" cy="551" r="82" fill="#D4A0A0" opacity="0.14" filter="url(#blur)"/><circle cx="1009" cy="1066" r="178" fill="#E8D4D4" opacity="0.15" filter="url(#blur)"/><circle cx="240" cy="955" r="196" fill="#D4A0A0" opacity="0.12" filter="url(#blur)"/><circle cx="529" cy="310" r="125" fill="#E8D4D4" opacity="0.16" filter="url(#blur)"/>
  <path d="M692,657 L680,687 L684,707 L700,707 L704,687 Z" fill="none" stroke="#C0A0A0" stroke-width="2.5" opacity="0.3"/>
  <g opacity="0.06">
    <circle cx="790" cy="310" r="3" fill="#C0A0A0"/><circle cx="238" cy="70" r="1" fill="#C0A0A0"/><circle cx="70" cy="647" r="1" fill="#C0A0A0"/><circle cx="585" cy="418" r="1" fill="#C0A0A0"/><circle cx="390" cy="222" r="3" fill="#C0A0A0"/><circle cx="386" cy="995" r="2" fill="#C0A0A0"/><circle cx="472" cy="767" r="3" fill="#C0A0A0"/><circle cx="103" cy="376" r="1" fill="#C0A0A0"/><circle cx="561" cy="985" r="2" fill="#C0A0A0"/><circle cx="435" cy="672" r="3" fill="#C0A0A0"/><circle cx="1150" cy="608" r="2" fill="#C0A0A0"/><circle cx="912" cy="244" r="1" fill="#C0A0A0"/><circle cx="203" cy="967" r="3" fill="#C0A0A0"/><circle cx="783" cy="187" r="1" fill="#C0A0A0"/><circle cx="1087" cy="459" r="2" fill="#C0A0A0"/>
  </g>
</svg>