<svg xmlns="http://www.w3.org/2000/svg" viewBox="0 0 1200 1200" preserveAspectRatio="xMidYMid slice">
  <defs>
    <radialGradient id="bg" cx="50%" cy="50%" r="80%">
      <stop offset="0%" stop-color="#FAF5F0" />
      <stop offset="60%" stop-color="#F0E8D8" />
      <stop offset="100%" stop-color="#DDD0C0" />
    </radialGradient>
    <filter id="blur"><feGaussianBlur stdDeviation="60"/></filter>
  </defs>
  <rect width="1200" height="1200" fill="url(#bg)"/>
  <circle cx="504" cy="1015" r="130" fill="#B8A080" opacity="0.06" filter="url(#blur)"/><circle cx="854" cy="252" r="128" fill="#DDD0C0" opacity="0.10" filter="url(#blur)"/><circle cx="669" cy="481" r="125" fill="#FAF5F0" opacity="0.17" filter="url(#blur)"/><circle cx="946" cy="350" r="170" fill="#B8A080" opacity="0.10" filter="url(#blur)"/><circle cx="983" cy="310" r="151" fill="#A08060" opacity="0.06" filter="url(#blur)"/>
  <rect x="432" y="586" width="50" height="10" rx="3" fill="none" stroke="#B8A080" stroke-width="2.5" opacity="0.3"/><line x1="437" y1="586" x2="437" y2="611" stroke="#B8A080" stroke-width="2" opacity="0.25"/><line x1="477" y1="586" x2="477" y2="611" stroke="#B8A080" stroke-width="2" opacity="0.25"/>
  <g opacity="0.06">
    <circle cx="504" cy="294" r="2" fill="#B8A080"/><circle cx="497" cy="727" r="3" fill="#B8A080"/><circle cx="604" cy="672" r="2" fill="#B8A080"/><circle cx="216" cy="808" r="3" fill="#B8A080"/><circle cx="970" cy="553" r="1" fill="#B8A080"/><circle cx="69" cy="924" r="2" fill="#B8A080"/><circle cx="1087" cy="244" r="3" fill="#B8A080"/><circle cx="281" cy="918" r="1" fill="#B8A080"/><circle cx="175" cy="387" r="3" fill="#B8A080"/><circle cx="599" cy="1082" r="1" fill="#B8A080"/><circle cx="256" cy="658" r="1" fill="#B8A080"/><circle cx="557" cy="611" r="2" fill="#B8A080"/><circle cx="228" cy="710" r="2" fill="#B8A080"/><circle cx="138" cy="300" r="3" fill="#B8A080"/><circle cx="390" cy="1041" r="2" fill="#B8A080"/>
  </g>
</svg>