<svg xmlns="http://www.w3.org/2000/svg" viewBox="0 0 1200 1200" preserveAspectRatio="xMidYMid slice">
  <defs>
    <radialGradient id="bg" cx="50%" cy="50%" r="80%">
      <stop offset="0%" stop-color="#FAF6F2" />
      <stop offset="60%" stop-color="#F0E8E0" />
      <stop offset="100%" stop-color="#DDD5CC" />
    </radialGradient>
    <filter id="blur"><feGaussianBlur stdDeviation="60"/></filter>
  </defs>
  <rect width="1200" height="1200" fill="url(#bg)"/>
  <circle cx="611" cy="179" r="109" fill="#B0A090" opacity="0.11" filter="url(#blur)"/><circle cx="713" cy="646" r="170" fill="#DDD5CC" opacity="0.06" filter="url(#blur)"/><circle cx="442" cy="220" r="184" fill="#A09080" opacity="0.16" filter="url(#blur)"/><circle cx="221" cy="1071" r="168" fill="#B0A090" opacity="0.18" filter="url(#blur)"/><circle cx="887" cy="799" r="89" fill="#FAF6F2" opacity="0.11" filter="url(#blur)"/>
  <rect x="542" y="466" width="36" height="24" rx="2" fill="none" stroke="#B0A090" stroke-width="2.5" opacity="0.3"/><path d="M542,466 L560,478 L578,466" fill="none" stroke="#B0A090" stroke-width="2" opacity="0.25"/>
  <g opacity="0.06">
    <circle cx="607" cy="129" r="1" fill="#B0A090"/><circle cx="400" cy="341" r="1" fill="#B0A090"/><circle cx="808" cy="961" r="1" fill="#B0A090"/><circle cx="300" cy="473" r="2" fill="#B0A090"/><circle cx="388" cy="474" r="2" fill="#B0A090"/><circle cx="1009" cy="916" r="3" fill="#B0A090"/><circle cx="722" cy="156" r="1" fill="#B0A090"/><circle cx="128" cy="898" r="1" fill="#B0A090"/><circle cx="1101" cy="240" r="2" fill="#B0A090"/><circle cx="579" cy="1045" r="1" fill="#B0A090"/><circle cx="449" cy="423" r="1" fill="#B0A090"/><circle cx="469" cy="371" r="2" fill="#B0A090"/><circle cx="309" cy="300" r="1" fill="#B0A090"/><circle cx="205" cy="109" r="3" fill="#B0A090"/><circle cx="950" cy="936" r="1" fill="#B0A090"/>
  </g>
</svg>