<svg xmlns="http://www.w3.org/2000/svg" viewBox="0 0 1200 1200" preserveAspectRatio="xMidYMid slice">
  <defs>
    <radialGradient id="bg" cx="50%" cy="50%" r="80%">
      <stop offset="0%" stop-color="#FAF6F2" />
      <stop offset="60%" stop-color="#F0E8E0" />
      <stop offset="100%" stop-color="#DDD5CC" />
    </radialGradient>
    <filter id="blur"><feGaussianBlur stdDeviation="60"/></filter>
  </defs>
  <rect width="1200" height="1200" fill="url(#bg)"/>
  <circle cx="238" cy="563" r="138" fill="#A09080" opacity="0.05" filter="url(#blur)"/><circle cx="893" cy="635" r="198" fill="#A09080" opacity="0.16" filter="url(#blur)"/><circle cx="286" cy="943" r="102" fill="#FAF6F2" opacity="0.12" filter="url(#blur)"/><circle cx="282" cy="691" r="137" fill="#A09080" opacity="0.15" filter="url(#blur)"/><circle cx="451" cy="111" r="85" fill="#A09080" opacity="0.09" filter="url(#blur)"/>
  <rect x="673" y="451" width="36" height="24" rx="2" fill="none" stroke="#B0A090" stroke-width="2.5" opacity="0.3"/><path d="M673,451 L691,463 L709,451" fill="none" stroke="#B0A090" stroke-width="2" opacity="0.25"/>
  <g opacity="0.06">
    <circle cx="432" cy="200" r="1" fill="#B0A090"/><circle cx="514" cy="71" r="1" fill="#B0A090"/><circle cx="901" cy="150" r="1" fill="#B0A090"/><circle cx="572" cy="526" r="1" fill="#B0A090"/><circle cx="1115" cy="1142" r="2" fill="#B0A090"/><circle cx="1055" cy="650" r="2" fill="#B0A090"/><circle cx="922" cy="767" r="1" fill="#B0A090"/><circle cx="275" cy="618" r="2" fill="#B0A090"/><circle cx="1025" cy="685" r="2" fill="#B0A090"/><circle cx="133" cy="102" r="1" fill="#B0A090"/><circle cx="85" cy="642" r="3" fill="#B0A090"/><circle cx="791" cy="293" r="2" fill="#B0A090"/><circle cx="508" cy="1140" r="3" fill="#B0A090"/><circle cx="1072" cy="739" r="2" fill="#B0A090"/><circle cx="700" cy="123" r="1" fill="#B0A090"/>
  </g>
</svg>