<svg xmlns="http://www.w3.org/2000/svg" viewBox="0 0 1200 1200" preserveAspectRatio="xMidYMid slice">
  <defs>
    <radialGradient id="bg" cx="50%" cy="50%" r="80%">
      <stop offset="0%" stop-color="#FFF8F0" />
      <stop offset="60%" stop-color="#F5E6D3" />
      <stop offset="100%" stop-color="#E8D4C0" />
    </radialGradient>
    <filter id="blur"><feGaussianBlur stdDeviation="60"/></filter>
  </defs>
  <rect width="1200" height="1200" fill="url(#bg)"/>
  <circle cx="596" cy="800" r="170" fill="#D4A574" opacity="0.19" filter="url(#blur)"/><circle cx="469" cy="922" r="150" fill="#C9A87C" opacity="0.15" filter="url(#blur)"/><circle cx="102" cy="741" r="187" fill="#FFF8F0" opacity="0.12" filter="url(#blur)"/><circle cx="471" cy="509" r="192" fill="#D4A574" opacity="0.20" filter="url(#blur)"/><circle cx="725" cy="1082" r="159" fill="#D4A574" opacity="0.07" filter="url(#blur)"/>
  <circle cx="517" cy="554" r="50" fill="none" stroke="#C9A87C" stroke-width="2.5" opacity="0.3"/><circle cx="497" cy="554" r="35" fill="none" stroke="#C9A87C" stroke-width="2" opacity="0.25"/><circle cx="537" cy="554" r="35" fill="none" stroke="#C9A87C" stroke-width="2" opacity="0.25"/>
  <g opacity="0.06">
    <circle cx="583" cy="400" r="2" fill="#C9A87C"/><circle cx="865" cy="139" r="2" fill="#C9A87C"/><circle cx="841" cy="564" r="2" fill="#C9A87C"/><circle cx="935" cy="928" r="3" fill="#C9A87C"/><circle cx="330" cy="737" r="1" fill="#C9A87C"/><circle cx="211" cy="184" r="3" fill="#C9A87C"/><circle cx="857" cy="678" r="1" fill="#C9A87C"/><circle cx="1131" cy="689" r="1" fill="#C9A87C"/><circle cx="626" cy="830" r="1" fill="#C9A87C"/><circle cx="235" cy="678" r="3" fill="#C9A87C"/><circle cx="1040" cy="670" r="2" fill="#C9A87C"/><circle cx="341" cy="83" r="3" fill="#C9A87C"/><circle cx="1106" cy="629" r="2" fill="#C9A87C"/><circle cx="323" cy="629" r="3" fill="#C9A87C"/><circle cx="439" cy="991" r="3" fill="#C9A87C"/>
  </g>
</svg>