<svg xmlns="http://www.w3.org/2000/svg" viewBox="0 0 1200 1200" preserveAspectRatio="xMidYMid slice">
  <defs>
    <radialGradient id="bg" cx="50%" cy="50%" r="80%">
      <stop offset="0%" stop-color="#F5F5F0" />
      <stop offset="60%" stop-color="#E8E8E0" />
      <stop offset="100%" stop-color="#D4D4CC" />
    </radialGradient>
    <filter id="blur"><feGaussianBlur stdDeviation="60"/></filter>
  </defs>
  <rect width="1200" height="1200" fill="url(#bg)"/>
  <circle cx="876" cy="784" r="128" fill="#909080" opacity="0.19" filter="url(#blur)"/><circle cx="258" cy="222" r="120" fill="#A0A090" opacity="0.10" filter="url(#blur)"/><circle cx="514" cy="328" r="135" fill="#D4D4CC" opacity="0.15" filter="url(#blur)"/><circle cx="420" cy="619" r="99" fill="#909080" opacity="0.10" filter="url(#blur)"/><circle cx="678" cy="363" r="113" fill="#F5F5F0" opacity="0.10" filter="url(#blur)"/>
  <rect x="677" y="595" width="30" height="40" rx="2" fill="none" stroke="#A0A090" stroke-width="2.5" opacity="0.3"/><line x1="684" y1="607" x2="700" y2="607" stroke="#A0A090" stroke-width="2" opacity="0.2"/><line x1="684" y1="617" x2="700" y2="617" stroke="#A0A090" stroke-width="2" opacity="0.2"/>
  <g opacity="0.06">
    <circle cx="173" cy="371" r="1" fill="#A0A090"/><circle cx="306" cy="359" r="2" fill="#A0A090"/><circle cx="212" cy="995" r="1" fill="#A0A090"/><circle cx="490" cy="1099" r="1" fill="#A0A090"/><circle cx="920" cy="600" r="1" fill="#A0A090"/><circle cx="562" cy="560" r="3" fill="#A0A090"/><circle cx="219" cy="461" r="1" fill="#A0A090"/><circle cx="441" cy="327" r="3" fill="#A0A090"/><circle cx="312" cy="1061" r="3" fill="#A0A090"/><circle cx="244" cy="655" r="3" fill="#A0A090"/><circle cx="176" cy="370" r="1" fill="#A0A090"/><circle cx="634" cy="616" r="1" fill="#A0A090"/><circle cx="224" cy="94" r="3" fill="#A0A090"/><circle cx="461" cy="415" r="2" fill="#A0A090"/><circle cx="1046" cy="800" r="1" fill="#A0A090"/>
  </g>
</svg>