<svg xmlns="http://www.w3.org/2000/svg" viewBox="0 0 1200 1200" preserveAspectRatio="xMidYMid slice">
  <defs>
    <radialGradient id="bg" cx="50%" cy="50%" r="80%">
      <stop offset="0%" stop-color="#FAF6F2" />
      <stop offset="60%" stop-color="#F0E8E0" />
      <stop offset="100%" stop-color="#DDD5CC" />
    </radialGradient>
    <filter id="blur"><feGaussianBlur stdDeviation="60"/></filter>
  </defs>
  <rect width="1200" height="1200" fill="url(#bg)"/>
  <circle cx="913" cy="416" r="197" fill="#DDD5CC" opacity="0.19" filter="url(#blur)"/><circle cx="178" cy="506" r="135" fill="#B8A89A" opacity="0.06" filter="url(#blur)"/><circle cx="176" cy="200" r="123" fill="#FAF6F2" opacity="0.10" filter="url(#blur)"/><circle cx="796" cy="568" r="117" fill="#DDD5CC" opacity="0.18" filter="url(#blur)"/><circle cx="322" cy="768" r="99" fill="#9A8B7A" opacity="0.08" filter="url(#blur)"/>
  <path d="M658,755 L698,705 L738,755" fill="none" stroke="#B8A89A" stroke-width="2.5" opacity="0.3"/>
  <g opacity="0.06">
    <circle cx="704" cy="1002" r="3" fill="#B8A89A"/><circle cx="1128" cy="141" r="1" fill="#B8A89A"/><circle cx="1131" cy="644" r="1" fill="#B8A89A"/><circle cx="444" cy="813" r="3" fill="#B8A89A"/><circle cx="515" cy="886" r="3" fill="#B8A89A"/><circle cx="806" cy="427" r="1" fill="#B8A89A"/><circle cx="249" cy="817" r="1" fill="#B8A89A"/><circle cx="1116" cy="389" r="3" fill="#B8A89A"/><circle cx="255" cy="456" r="1" fill="#B8A89A"/><circle cx="301" cy="691" r="3" fill="#B8A89A"/><circle cx="582" cy="382" r="1" fill="#B8A89A"/><circle cx="477" cy="1101" r="1" fill="#B8A89A"/><circle cx="214" cy="586" r="2" fill="#B8A89A"/><circle cx="1062" cy="1108" r="1" fill="#B8A89A"/><circle cx="983" cy="932" r="3" fill="#B8A89A"/>
  </g>
</svg>