<svg xmlns="http://www.w3.org/2000/svg" viewBox="0 0 1200 1200" preserveAspectRatio="xMidYMid slice">
  <defs>
    <radialGradient id="bg" cx="50%" cy="50%" r="80%">
      <stop offset="0%" stop-color="#FAF6F2" />
      <stop offset="60%" stop-color="#F0E8E0" />
      <stop offset="100%" stop-color="#DDD5CC" />
    </radialGradient>
    <filter id="blur"><feGaussianBlur stdDeviation="60"/></filter>
  </defs>
  <rect width="1200" height="1200" fill="url(#bg)"/>
  <circle cx="894" cy="211" r="133" fill="#9A8B7A" opacity="0.09" filter="url(#blur)"/><circle cx="323" cy="892" r="178" fill="#FAF6F2" opacity="0.10" filter="url(#blur)"/><circle cx="1100" cy="439" r="199" fill="#B8A89A" opacity="0.09" filter="url(#blur)"/><circle cx="894" cy="659" r="93" fill="#FAF6F2" opacity="0.10" filter="url(#blur)"/><circle cx="904" cy="848" r="103" fill="#B8A89A" opacity="0.06" filter="url(#blur)"/>
  <path d="M510,548 L550,498 L590,548" fill="none" stroke="#B8A89A" stroke-width="2.5" opacity="0.3"/>
  <g opacity="0.06">
    <circle cx="720" cy="1017" r="2" fill="#B8A89A"/><circle cx="281" cy="376" r="2" fill="#B8A89A"/><circle cx="853" cy="688" r="1" fill="#B8A89A"/><circle cx="811" cy="603" r="2" fill="#B8A89A"/><circle cx="147" cy="233" r="1" fill="#B8A89A"/><circle cx="1135" cy="454" r="3" fill="#B8A89A"/><circle cx="275" cy="96" r="2" fill="#B8A89A"/><circle cx="229" cy="1136" r="2" fill="#B8A89A"/><circle cx="173" cy="341" r="3" fill="#B8A89A"/><circle cx="96" cy="1035" r="3" fill="#B8A89A"/><circle cx="1025" cy="724" r="2" fill="#B8A89A"/><circle cx="476" cy="1116" r="2" fill="#B8A89A"/><circle cx="566" cy="1038" r="1" fill="#B8A89A"/><circle cx="939" cy="518" r="1" fill="#B8A89A"/><circle cx="522" cy="1048" r="3" fill="#B8A89A"/>
  </g>
</svg>