<svg xmlns="http://www.w3.org/2000/svg" viewBox="0 0 1200 1200" preserveAspectRatio="xMidYMid slice">
  <defs>
    <radialGradient id="bg" cx="50%" cy="50%" r="80%">
      <stop offset="0%" stop-color="#FFF8F0" />
      <stop offset="60%" stop-color="#F5E6D3" />
      <stop offset="100%" stop-color="#E8D4C0" />
    </radialGradient>
    <filter id="blur"><feGaussianBlur stdDeviation="60"/></filter>
  </defs>
  <rect width="1200" height="1200" fill="url(#bg)"/>
  <circle cx="278" cy="753" r="85" fill="#E8D4C0" opacity="0.15" filter="url(#blur)"/><circle cx="272" cy="1075" r="200" fill="#FFF8F0" opacity="0.10" filter="url(#blur)"/><circle cx="155" cy="673" r="171" fill="#C9A87C" opacity="0.10" filter="url(#blur)"/><circle cx="566" cy="292" r="139" fill="#FFF8F0" opacity="0.19" filter="url(#blur)"/><circle cx="595" cy="201" r="140" fill="#C9A87C" opacity="0.13" filter="url(#blur)"/>
  <circle cx="738" cy="608" r="50" fill="none" stroke="#C9A87C" stroke-width="2.5" opacity="0.3"/><circle cx="718" cy="608" r="35" fill="none" stroke="#C9A87C" stroke-width="2" opacity="0.25"/><circle cx="758" cy="608" r="35" fill="none" stroke="#C9A87C" stroke-width="2" opacity="0.25"/>
  <g opacity="0.06">
    <circle cx="666" cy="689" r="3" fill="#C9A87C"/><circle cx="521" cy="749" r="2" fill="#C9A87C"/><circle cx="803" cy="632" r="1" fill="#C9A87C"/><circle cx="92" cy="611" r="1" fill="#C9A87C"/><circle cx="792" cy="709" r="1" fill="#C9A87C"/><circle cx="458" cy="989" r="1" fill="#C9A87C"/><circle cx="565" cy="1062" r="3" fill="#C9A87C"/><circle cx="692" cy="688" r="3" fill="#C9A87C"/><circle cx="924" cy="845" r="3" fill="#C9A87C"/><circle cx="315" cy="740" r="3" fill="#C9A87C"/><circle cx="140" cy="856" r="2" fill="#C9A87C"/><circle cx="147" cy="1132" r="2" fill="#C9A87C"/><circle cx="269" cy="532" r="2" fill="#C9A87C"/><circle cx="837" cy="854" r="1" fill="#C9A87C"/><circle cx="757" cy="1097" r="1" fill="#C9A87C"/>
  </g>
</svg>