<svg xmlns="http://www.w3.org/2000/svg" viewBox="0 0 1200 1200" preserveAspectRatio="xMidYMid slice">
  <defs>
    <radialGradient id="bg" cx="50%" cy="50%" r="80%">
      <stop offset="0%" stop-color="#F5F5F0" />
      <stop offset="60%" stop-color="#E8E8E0" />
      <stop offset="100%" stop-color="#D4D4CC" />
    </radialGradient>
    <filter id="blur"><feGaussianBlur stdDeviation="60"/></filter>
  </defs>
  <rect width="1200" height="1200" fill="url(#bg)"/>
  <circle cx="440" cy="156" r="169" fill="#A0A090" opacity="0.10" filter="url(#blur)"/><circle cx="241" cy="280" r="115" fill="#D4D4CC" opacity="0.18" filter="url(#blur)"/><circle cx="588" cy="995" r="176" fill="#A0A090" opacity="0.15" filter="url(#blur)"/><circle cx="291" cy="815" r="82" fill="#909080" opacity="0.07" filter="url(#blur)"/><circle cx="617" cy="890" r="181" fill="#909080" opacity="0.19" filter="url(#blur)"/>
  <rect x="584" y="530" width="30" height="40" rx="2" fill="none" stroke="#A0A090" stroke-width="2.5" opacity="0.3"/><line x1="591" y1="542" x2="607" y2="542" stroke="#A0A090" stroke-width="2" opacity="0.2"/><line x1="591" y1="552" x2="607" y2="552" stroke="#A0A090" stroke-width="2" opacity="0.2"/>
  <g opacity="0.06">
    <circle cx="1100" cy="785" r="2" fill="#A0A090"/><circle cx="221" cy="481" r="1" fill="#A0A090"/><circle cx="818" cy="1107" r="1" fill="#A0A090"/><circle cx="530" cy="174" r="1" fill="#A0A090"/><circle cx="166" cy="906" r="1" fill="#A0A090"/><circle cx="56" cy="1059" r="3" fill="#A0A090"/><circle cx="962" cy="874" r="3" fill="#A0A090"/><circle cx="218" cy="607" r="1" fill="#A0A090"/><circle cx="810" cy="667" r="2" fill="#A0A090"/><circle cx="333" cy="80" r="3" fill="#A0A090"/><circle cx="815" cy="702" r="3" fill="#A0A090"/><circle cx="795" cy="1104" r="2" fill="#A0A090"/><circle cx="961" cy="897" r="1" fill="#A0A090"/><circle cx="416" cy="84" r="2" fill="#A0A090"/><circle cx="679" cy="402" r="1" fill="#A0A090"/>
  </g>
</svg>