<svg xmlns="http://www.w3.org/2000/svg" viewBox="0 0 1200 1200" preserveAspectRatio="xMidYMid slice">
  <defs>
    <radialGradient id="bg" cx="50%" cy="50%" r="80%">
      <stop offset="0%" stop-color="#FFF8F0" />
      <stop offset="60%" stop-color="#F5E6D3" />
      <stop offset="100%" stop-color="#E8D4C0" />
    </radialGradient>
    <filter id="blur"><feGaussianBlur stdDeviation="60"/></filter>
  </defs>
  <rect width="1200" height="1200" fill="url(#bg)"/>
  <circle cx="421" cy="139" r="97" fill="#E8D4C0" opacity="0.19" filter="url(#blur)"/><circle cx="349" cy="113" r="144" fill="#FFF8F0" opacity="0.15" filter="url(#blur)"/><circle cx="161" cy="1004" r="136" fill="#D4A574" opacity="0.12" filter="url(#blur)"/><circle cx="397" cy="691" r="170" fill="#FFF8F0" opacity="0.14" filter="url(#blur)"/><circle cx="194" cy="517" r="196" fill="#D4A574" opacity="0.08" filter="url(#blur)"/>
  <circle cx="490" cy="506" r="50" fill="none" stroke="#C9A87C" stroke-width="2.5" opacity="0.3"/><circle cx="470" cy="506" r="35" fill="none" stroke="#C9A87C" stroke-width="2" opacity="0.25"/><circle cx="510" cy="506" r="35" fill="none" stroke="#C9A87C" stroke-width="2" opacity="0.25"/>
  <g opacity="0.06">
    <circle cx="163" cy="136" r="3" fill="#C9A87C"/><circle cx="625" cy="682" r="1" fill="#C9A87C"/><circle cx="513" cy="103" r="1" fill="#C9A87C"/><circle cx="728" cy="68" r="1" fill="#C9A87C"/><circle cx="412" cy="611" r="3" fill="#C9A87C"/><circle cx="381" cy="766" r="3" fill="#C9A87C"/><circle cx="897" cy="1049" r="3" fill="#C9A87C"/><circle cx="929" cy="1147" r="3" fill="#C9A87C"/><circle cx="1070" cy="679" r="3" fill="#C9A87C"/><circle cx="923" cy="872" r="1" fill="#C9A87C"/><circle cx="451" cy="603" r="2" fill="#C9A87C"/><circle cx="633" cy="1112" r="3" fill="#C9A87C"/><circle cx="883" cy="1097" r="1" fill="#C9A87C"/><circle cx="535" cy="336" r="2" fill="#C9A87C"/><circle cx="471" cy="802" r="2" fill="#C9A87C"/>
  </g>
</svg>