<svg xmlns="http://www.w3.org/2000/svg" viewBox="0 0 1200 1200" preserveAspectRatio="xMidYMid slice">
  <defs>
    <radialGradient id="bg" cx="50%" cy="50%" r="80%">
      <stop offset="0%" stop-color="#FFF8F0" />
      <stop offset="60%" stop-color="#F5E6D3" />
      <stop offset="100%" stop-color="#E8D4C0" />
    </radialGradient>
    <filter id="blur"><feGaussianBlur stdDeviation="60"/></filter>
  </defs>
  <rect width="1200" height="1200" fill="url(#bg)"/>
  <circle cx="238" cy="1076" r="160" fill="#FFF8F0" opacity="0.14" filter="url(#blur)"/><circle cx="572" cy="293" r="159" fill="#E8D4C0" opacity="0.12" filter="url(#blur)"/><circle cx="932" cy="696" r="108" fill="#E8D4C0" opacity="0.07" filter="url(#blur)"/><circle cx="166" cy="1081" r="170" fill="#FFF8F0" opacity="0.14" filter="url(#blur)"/><circle cx="862" cy="777" r="181" fill="#C9A87C" opacity="0.11" filter="url(#blur)"/>
  <circle cx="728" cy="629" r="50" fill="none" stroke="#C9A87C" stroke-width="2.5" opacity="0.3"/><circle cx="708" cy="629" r="35" fill="none" stroke="#C9A87C" stroke-width="2" opacity="0.25"/><circle cx="748" cy="629" r="35" fill="none" stroke="#C9A87C" stroke-width="2" opacity="0.25"/>
  <g opacity="0.06">
    <circle cx="385" cy="106" r="1" fill="#C9A87C"/><circle cx="468" cy="103" r="1" fill="#C9A87C"/><circle cx="610" cy="209" r="1" fill="#C9A87C"/><circle cx="804" cy="757" r="3" fill="#C9A87C"/><circle cx="908" cy="347" r="3" fill="#C9A87C"/><circle cx="104" cy="539" r="1" fill="#C9A87C"/><circle cx="681" cy="1101" r="3" fill="#C9A87C"/><circle cx="882" cy="583" r="3" fill="#C9A87C"/><circle cx="435" cy="447" r="1" fill="#C9A87C"/><circle cx="198" cy="536" r="2" fill="#C9A87C"/><circle cx="388" cy="172" r="3" fill="#C9A87C"/><circle cx="919" cy="478" r="2" fill="#C9A87C"/><circle cx="770" cy="281" r="3" fill="#C9A87C"/><circle cx="846" cy="690" r="3" fill="#C9A87C"/><circle cx="1065" cy="332" r="1" fill="#C9A87C"/>
  </g>
</svg>