<svg xmlns="http://www.w3.org/2000/svg" viewBox="0 0 1200 1200" preserveAspectRatio="xMidYMid slice">
  <defs>
    <radialGradient id="bg" cx="50%" cy="50%" r="80%">
      <stop offset="0%" stop-color="#FFF8F0" />
      <stop offset="60%" stop-color="#F5E6D3" />
      <stop offset="100%" stop-color="#E8D4C0" />
    </radialGradient>
    <filter id="blur"><feGaussianBlur stdDeviation="60"/></filter>
  </defs>
  <rect width="1200" height="1200" fill="url(#bg)"/>
  <circle cx="425" cy="717" r="139" fill="#D4A574" opacity="0.12" filter="url(#blur)"/><circle cx="369" cy="498" r="91" fill="#FFF8F0" opacity="0.19" filter="url(#blur)"/><circle cx="631" cy="109" r="128" fill="#D4A574" opacity="0.19" filter="url(#blur)"/><circle cx="669" cy="354" r="154" fill="#D4A574" opacity="0.20" filter="url(#blur)"/><circle cx="952" cy="641" r="85" fill="#C9A87C" opacity="0.14" filter="url(#blur)"/>
  <circle cx="640" cy="464" r="50" fill="none" stroke="#C9A87C" stroke-width="2.5" opacity="0.3"/><circle cx="620" cy="464" r="35" fill="none" stroke="#C9A87C" stroke-width="2" opacity="0.25"/><circle cx="660" cy="464" r="35" fill="none" stroke="#C9A87C" stroke-width="2" opacity="0.25"/>
  <g opacity="0.06">
    <circle cx="159" cy="283" r="2" fill="#C9A87C"/><circle cx="195" cy="976" r="3" fill="#C9A87C"/><circle cx="281" cy="1122" r="2" fill="#C9A87C"/><circle cx="221" cy="557" r="2" fill="#C9A87C"/><circle cx="806" cy="484" r="1" fill="#C9A87C"/><circle cx="1043" cy="509" r="2" fill="#C9A87C"/><circle cx="517" cy="1111" r="3" fill="#C9A87C"/><circle cx="792" cy="886" r="3" fill="#C9A87C"/><circle cx="685" cy="1093" r="3" fill="#C9A87C"/><circle cx="808" cy="573" r="3" fill="#C9A87C"/><circle cx="365" cy="171" r="2" fill="#C9A87C"/><circle cx="577" cy="518" r="3" fill="#C9A87C"/><circle cx="811" cy="1016" r="2" fill="#C9A87C"/><circle cx="110" cy="747" r="2" fill="#C9A87C"/><circle cx="505" cy="1091" r="1" fill="#C9A87C"/>
  </g>
</svg>