<svg xmlns="http://www.w3.org/2000/svg" viewBox="0 0 1200 1200" preserveAspectRatio="xMidYMid slice">
  <defs>
    <radialGradient id="bg" cx="50%" cy="50%" r="80%">
      <stop offset="0%" stop-color="#FAF5F0" />
      <stop offset="60%" stop-color="#F0E8D8" />
      <stop offset="100%" stop-color="#DDD0C0" />
    </radialGradient>
    <filter id="blur"><feGaussianBlur stdDeviation="60"/></filter>
  </defs>
  <rect width="1200" height="1200" fill="url(#bg)"/>
  <circle cx="822" cy="479" r="106" fill="#FAF5F0" opacity="0.06" filter="url(#blur)"/><circle cx="1066" cy="730" r="134" fill="#FAF5F0" opacity="0.14" filter="url(#blur)"/><circle cx="123" cy="626" r="173" fill="#DDD0C0" opacity="0.15" filter="url(#blur)"/><circle cx="618" cy="783" r="89" fill="#FAF5F0" opacity="0.17" filter="url(#blur)"/><circle cx="686" cy="396" r="140" fill="#A08060" opacity="0.06" filter="url(#blur)"/>
  <rect x="666" y="686" width="50" height="10" rx="3" fill="none" stroke="#B8A080" stroke-width="2.5" opacity="0.3"/><line x1="671" y1="686" x2="671" y2="711" stroke="#B8A080" stroke-width="2" opacity="0.25"/><line x1="711" y1="686" x2="711" y2="711" stroke="#B8A080" stroke-width="2" opacity="0.25"/>
  <g opacity="0.06">
    <circle cx="700" cy="276" r="1" fill="#B8A080"/><circle cx="634" cy="90" r="1" fill="#B8A080"/><circle cx="923" cy="926" r="2" fill="#B8A080"/><circle cx="247" cy="643" r="1" fill="#B8A080"/><circle cx="626" cy="1082" r="3" fill="#B8A080"/><circle cx="1058" cy="829" r="2" fill="#B8A080"/><circle cx="140" cy="1051" r="1" fill="#B8A080"/><circle cx="267" cy="1036" r="1" fill="#B8A080"/><circle cx="762" cy="124" r="3" fill="#B8A080"/><circle cx="749" cy="659" r="2" fill="#B8A080"/><circle cx="1107" cy="407" r="1" fill="#B8A080"/><circle cx="677" cy="341" r="1" fill="#B8A080"/><circle cx="966" cy="627" r="3" fill="#B8A080"/><circle cx="232" cy="399" r="1" fill="#B8A080"/><circle cx="366" cy="619" r="2" fill="#B8A080"/>
  </g>
</svg>