<svg xmlns="http://www.w3.org/2000/svg" viewBox="0 0 1200 1200" preserveAspectRatio="xMidYMid slice">
  <defs>
    <radialGradient id="bg" cx="50%" cy="50%" r="80%">
      <stop offset="0%" stop-color="#F5F5F5" />
      <stop offset="60%" stop-color="#E8E8E8" />
      <stop offset="100%" stop-color="#D4D4D4" />
    </radialGradient>
    <filter id="blur"><feGaussianBlur stdDeviation="60"/></filter>
  </defs>
  <rect width="1200" height="1200" fill="url(#bg)"/>
  <circle cx="775" cy="772" r="89" fill="#A0A0A0" opacity="0.08" filter="url(#blur)"/><circle cx="446" cy="494" r="179" fill="#A0A0A0" opacity="0.05" filter="url(#blur)"/><circle cx="943" cy="945" r="185" fill="#909090" opacity="0.08" filter="url(#blur)"/><circle cx="956" cy="1066" r="185" fill="#D4D4D4" opacity="0.20" filter="url(#blur)"/><circle cx="954" cy="516" r="118" fill="#A0A0A0" opacity="0.09" filter="url(#blur)"/>
  <rect x="553" y="623" width="30" height="40" rx="2" fill="none" stroke="#A0A0A0" stroke-width="2.5" opacity="0.3"/>
  <g opacity="0.06">
    <circle cx="786" cy="471" r="2" fill="#A0A0A0"/><circle cx="869" cy="116" r="2" fill="#A0A0A0"/><circle cx="137" cy="389" r="1" fill="#A0A0A0"/><circle cx="1036" cy="172" r="1" fill="#A0A0A0"/><circle cx="875" cy="604" r="3" fill="#A0A0A0"/><circle cx="206" cy="878" r="3" fill="#A0A0A0"/><circle cx="404" cy="594" r="3" fill="#A0A0A0"/><circle cx="418" cy="1098" r="2" fill="#A0A0A0"/><circle cx="669" cy="829" r="1" fill="#A0A0A0"/><circle cx="575" cy="1116" r="2" fill="#A0A0A0"/><circle cx="645" cy="153" r="3" fill="#A0A0A0"/><circle cx="343" cy="441" r="3" fill="#A0A0A0"/><circle cx="865" cy="883" r="3" fill="#A0A0A0"/><circle cx="796" cy="56" r="1" fill="#A0A0A0"/><circle cx="434" cy="396" r="3" fill="#A0A0A0"/>
  </g>
</svg>