<svg xmlns="http://www.w3.org/2000/svg" viewBox="0 0 1200 1200" preserveAspectRatio="xMidYMid slice">
  <defs>
    <radialGradient id="bg" cx="50%" cy="50%" r="80%">
      <stop offset="0%" stop-color="#F0F5F5" />
      <stop offset="60%" stop-color="#E0E8E8" />
      <stop offset="100%" stop-color="#CCD4D4" />
    </radialGradient>
    <filter id="blur"><feGaussianBlur stdDeviation="60"/></filter>
  </defs>
  <rect width="1200" height="1200" fill="url(#bg)"/>
  <circle cx="439" cy="150" r="81" fill="#90A0A0" opacity="0.05" filter="url(#blur)"/><circle cx="659" cy="707" r="122" fill="#90A0A0" opacity="0.08" filter="url(#blur)"/><circle cx="993" cy="116" r="126" fill="#F0F5F5" opacity="0.11" filter="url(#blur)"/><circle cx="376" cy="803" r="121" fill="#809090" opacity="0.05" filter="url(#blur)"/><circle cx="1073" cy="1059" r="123" fill="#F0F5F5" opacity="0.15" filter="url(#blur)"/>
  <circle cx="489" cy="553" r="30" fill="none" stroke="#90A0A0" stroke-width="2.5" opacity="0.3"/><line x1="489" y1="553" x2="489" y2="533" stroke="#90A0A0" stroke-width="2" opacity="0.25"/><line x1="489" y1="553" x2="504" y2="563" stroke="#90A0A0" stroke-width="2" opacity="0.25"/>
  <g opacity="0.06">
    <circle cx="922" cy="1081" r="1" fill="#90A0A0"/><circle cx="595" cy="72" r="3" fill="#90A0A0"/><circle cx="930" cy="798" r="1" fill="#90A0A0"/><circle cx="401" cy="698" r="2" fill="#90A0A0"/><circle cx="567" cy="850" r="3" fill="#90A0A0"/><circle cx="384" cy="729" r="1" fill="#90A0A0"/><circle cx="827" cy="1045" r="3" fill="#90A0A0"/><circle cx="113" cy="931" r="2" fill="#90A0A0"/><circle cx="191" cy="114" r="3" fill="#90A0A0"/><circle cx="692" cy="257" r="3" fill="#90A0A0"/><circle cx="62" cy="1038" r="1" fill="#90A0A0"/><circle cx="752" cy="578" r="1" fill="#90A0A0"/><circle cx="521" cy="693" r="1" fill="#90A0A0"/><circle cx="507" cy="1040" r="1" fill="#90A0A0"/><circle cx="53" cy="796" r="2" fill="#90A0A0"/>
  </g>
</svg>