<svg xmlns="http://www.w3.org/2000/svg" viewBox="0 0 1200 1200" preserveAspectRatio="xMidYMid slice">
  <defs>
    <radialGradient id="bg" cx="50%" cy="50%" r="80%">
      <stop offset="0%" stop-color="#FAF5F0" />
      <stop offset="60%" stop-color="#F0E8D8" />
      <stop offset="100%" stop-color="#DDD0C0" />
    </radialGradient>
    <filter id="blur"><feGaussianBlur stdDeviation="60"/></filter>
  </defs>
  <rect width="1200" height="1200" fill="url(#bg)"/>
  <circle cx="374" cy="421" r="170" fill="#DDD0C0" opacity="0.17" filter="url(#blur)"/><circle cx="471" cy="673" r="134" fill="#B8A080" opacity="0.08" filter="url(#blur)"/><circle cx="979" cy="575" r="88" fill="#FAF5F0" opacity="0.15" filter="url(#blur)"/><circle cx="370" cy="897" r="176" fill="#B8A080" opacity="0.08" filter="url(#blur)"/><circle cx="380" cy="714" r="85" fill="#A08060" opacity="0.16" filter="url(#blur)"/>
  <rect x="448" y="483" width="50" height="10" rx="3" fill="none" stroke="#B8A080" stroke-width="2.5" opacity="0.3"/><line x1="453" y1="483" x2="453" y2="508" stroke="#B8A080" stroke-width="2" opacity="0.25"/><line x1="493" y1="483" x2="493" y2="508" stroke="#B8A080" stroke-width="2" opacity="0.25"/>
  <g opacity="0.06">
    <circle cx="1072" cy="453" r="1" fill="#B8A080"/><circle cx="687" cy="258" r="2" fill="#B8A080"/><circle cx="252" cy="1139" r="3" fill="#B8A080"/><circle cx="480" cy="946" r="3" fill="#B8A080"/><circle cx="270" cy="92" r="2" fill="#B8A080"/><circle cx="716" cy="71" r="1" fill="#B8A080"/><circle cx="1076" cy="1040" r="2" fill="#B8A080"/><circle cx="1031" cy="353" r="1" fill="#B8A080"/><circle cx="204" cy="101" r="2" fill="#B8A080"/><circle cx="759" cy="1032" r="3" fill="#B8A080"/><circle cx="444" cy="623" r="2" fill="#B8A080"/><circle cx="482" cy="253" r="3" fill="#B8A080"/><circle cx="312" cy="919" r="2" fill="#B8A080"/><circle cx="913" cy="267" r="2" fill="#B8A080"/><circle cx="524" cy="1136" r="2" fill="#B8A080"/>
  </g>
</svg>