<svg xmlns="http://www.w3.org/2000/svg" viewBox="0 0 1200 1200" preserveAspectRatio="xMidYMid slice">
  <defs>
    <radialGradient id="bg" cx="50%" cy="50%" r="80%">
      <stop offset="0%" stop-color="#FAF0F0" />
      <stop offset="60%" stop-color="#F5E8E8" />
      <stop offset="100%" stop-color="#E8D4D4" />
    </radialGradient>
    <filter id="blur"><feGaussianBlur stdDeviation="60"/></filter>
  </defs>
  <rect width="1200" height="1200" fill="url(#bg)"/>
  <circle cx="1079" cy="392" r="119" fill="#E8D4D4" opacity="0.10" filter="url(#blur)"/><circle cx="933" cy="798" r="126" fill="#FAF0F0" opacity="0.14" filter="url(#blur)"/><circle cx="107" cy="964" r="99" fill="#C0A0A0" opacity="0.08" filter="url(#blur)"/><circle cx="694" cy="959" r="145" fill="#E8D4D4" opacity="0.18" filter="url(#blur)"/><circle cx="389" cy="999" r="175" fill="#C0A0A0" opacity="0.06" filter="url(#blur)"/>
  <path d="M677,633 L665,663 L669,683 L685,683 L689,663 Z" fill="none" stroke="#C0A0A0" stroke-width="2.5" opacity="0.3"/>
  <g opacity="0.06">
    <circle cx="726" cy="543" r="2" fill="#C0A0A0"/><circle cx="108" cy="210" r="3" fill="#C0A0A0"/><circle cx="939" cy="609" r="3" fill="#C0A0A0"/><circle cx="227" cy="855" r="2" fill="#C0A0A0"/><circle cx="421" cy="139" r="2" fill="#C0A0A0"/><circle cx="544" cy="160" r="1" fill="#C0A0A0"/><circle cx="409" cy="1118" r="1" fill="#C0A0A0"/><circle cx="454" cy="544" r="2" fill="#C0A0A0"/><circle cx="1049" cy="256" r="2" fill="#C0A0A0"/><circle cx="776" cy="871" r="3" fill="#C0A0A0"/><circle cx="1119" cy="785" r="2" fill="#C0A0A0"/><circle cx="64" cy="854" r="3" fill="#C0A0A0"/><circle cx="574" cy="709" r="1" fill="#C0A0A0"/><circle cx="628" cy="1055" r="1" fill="#C0A0A0"/><circle cx="1071" cy="252" r="1" fill="#C0A0A0"/>
  </g>
</svg>