<svg xmlns="http://www.w3.org/2000/svg" viewBox="0 0 1200 1200" preserveAspectRatio="xMidYMid slice">
  <defs>
    <radialGradient id="bg" cx="50%" cy="50%" r="80%">
      <stop offset="0%" stop-color="#FFF8F0" />
      <stop offset="60%" stop-color="#F5E6D3" />
      <stop offset="100%" stop-color="#E8D4C0" />
    </radialGradient>
    <filter id="blur"><feGaussianBlur stdDeviation="60"/></filter>
  </defs>
  <rect width="1200" height="1200" fill="url(#bg)"/>
  <circle cx="504" cy="1015" r="130" fill="#C9A87C" opacity="0.06" filter="url(#blur)"/><circle cx="854" cy="252" r="128" fill="#E8D4C0" opacity="0.10" filter="url(#blur)"/><circle cx="669" cy="481" r="125" fill="#FFF8F0" opacity="0.17" filter="url(#blur)"/><circle cx="946" cy="350" r="170" fill="#C9A87C" opacity="0.10" filter="url(#blur)"/><circle cx="983" cy="310" r="151" fill="#D4A574" opacity="0.06" filter="url(#blur)"/>
  <circle cx="457" cy="591" r="50" fill="none" stroke="#C9A87C" stroke-width="2.5" opacity="0.3"/><circle cx="437" cy="591" r="35" fill="none" stroke="#C9A87C" stroke-width="2" opacity="0.25"/><circle cx="477" cy="591" r="35" fill="none" stroke="#C9A87C" stroke-width="2" opacity="0.25"/>
  <g opacity="0.06">
    <circle cx="504" cy="294" r="2" fill="#C9A87C"/><circle cx="497" cy="727" r="3" fill="#C9A87C"/><circle cx="604" cy="672" r="2" fill="#C9A87C"/><circle cx="216" cy="808" r="3" fill="#C9A87C"/><circle cx="970" cy="553" r="1" fill="#C9A87C"/><circle cx="69" cy="924" r="2" fill="#C9A87C"/><circle cx="1087" cy="244" r="3" fill="#C9A87C"/><circle cx="281" cy="918" r="1" fill="#C9A87C"/><circle cx="175" cy="387" r="3" fill="#C9A87C"/><circle cx="599" cy="1082" r="1" fill="#C9A87C"/><circle cx="256" cy="658" r="1" fill="#C9A87C"/><circle cx="557" cy="611" r="2" fill="#C9A87C"/><circle cx="228" cy="710" r="2" fill="#C9A87C"/><circle cx="138" cy="300" r="3" fill="#C9A87C"/><circle cx="390" cy="1041" r="2" fill="#C9A87C"/>
  </g>
</svg>