<svg xmlns="http://www.w3.org/2000/svg" viewBox="0 0 1200 1200" preserveAspectRatio="xMidYMid slice">
  <defs>
    <radialGradient id="bg" cx="50%" cy="50%" r="80%">
      <stop offset="0%" stop-color="#F0F0E0" />
      <stop offset="60%" stop-color="#E8E8D8" />
      <stop offset="100%" stop-color="#D4D4C0" />
    </radialGradient>
    <filter id="blur"><feGaussianBlur stdDeviation="60"/></filter>
  </defs>
  <rect width="1200" height="1200" fill="url(#bg)"/>
  <circle cx="300" cy="219" r="87" fill="#D4D4C0" opacity="0.16" filter="url(#blur)"/><circle cx="532" cy="949" r="125" fill="#8B8B6B" opacity="0.12" filter="url(#blur)"/><circle cx="840" cy="607" r="193" fill="#F0F0E0" opacity="0.11" filter="url(#blur)"/><circle cx="850" cy="405" r="133" fill="#F0F0E0" opacity="0.05" filter="url(#blur)"/><circle cx="103" cy="937" r="159" fill="#F0F0E0" opacity="0.18" filter="url(#blur)"/>
  <circle cx="639" cy="511" r="40" fill="none" stroke="#A0A080" stroke-width="2.5" opacity="0.3"/><circle cx="624" cy="496" r="15" fill="none" stroke="#A0A080" stroke-width="2" opacity="0.25"/><circle cx="654" cy="496" r="15" fill="none" stroke="#A0A080" stroke-width="2" opacity="0.25"/><circle cx="639" cy="531" r="15" fill="none" stroke="#A0A080" stroke-width="2" opacity="0.25"/>
  <g opacity="0.06">
    <circle cx="554" cy="297" r="1" fill="#A0A080"/><circle cx="931" cy="345" r="2" fill="#A0A080"/><circle cx="312" cy="64" r="2" fill="#A0A080"/><circle cx="538" cy="458" r="2" fill="#A0A080"/><circle cx="1070" cy="1008" r="3" fill="#A0A080"/><circle cx="160" cy="402" r="1" fill="#A0A080"/><circle cx="78" cy="775" r="1" fill="#A0A080"/><circle cx="724" cy="214" r="3" fill="#A0A080"/><circle cx="202" cy="1148" r="3" fill="#A0A080"/><circle cx="208" cy="710" r="2" fill="#A0A080"/><circle cx="890" cy="1143" r="2" fill="#A0A080"/><circle cx="453" cy="481" r="1" fill="#A0A080"/><circle cx="917" cy="717" r="2" fill="#A0A080"/><circle cx="195" cy="797" r="1" fill="#A0A080"/><circle cx="574" cy="1065" r="2" fill="#A0A080"/>
  </g>
</svg>